<svg width="33" height="32" viewBox="0 0 33 32" fill="none" xmlns="http://www.w3.org/2000/svg">
<path d="M16.6666 29.3333C24.0304 29.3333 29.9999 23.3638 29.9999 16C29.9999 8.63616 24.0304 2.66663 16.6666 2.66663C9.30282 2.66663 3.33328 8.63616 3.33328 16C3.33328 23.3638 9.30282 29.3333 16.6666 29.3333Z" stroke="black" stroke-width="2"/>
<path d="M19.3333 9.33329C19.3333 10.8061 18.1394 12 16.6666 12C15.1938 12 14 10.8061 14 9.33329C14 7.86053 15.1938 6.66663 16.6666 6.66663C18.1394 6.66663 19.3333 7.86053 19.3333 9.33329Z" stroke="black" stroke-width="2"/>
<path d="M24.6666 13.3334C24.6666 13.3334 19.9502 15.3334 16.6666 15.3334C13.383 15.3334 8.66663 13.3334 8.66663 13.3334" stroke="black" stroke-width="2" stroke-linecap="round"/>
<path d="M16.6666 16V17.9363C16.6666 18.7033 16.8872 19.4541 17.302 20.0993L20.6666 25.3333" stroke="black" stroke-width="2" stroke-linecap="round"/>
<path d="M16.6666 16V17.9363C16.6666 18.7033 16.4461 19.4541 16.0313 20.0993L12.6666 25.3333" stroke="black" stroke-width="2" stroke-linecap="round"/>
</svg>
