<svg width="1008" height="246" viewBox="0 0 1008 246" fill="none" xmlns="http://www.w3.org/2000/svg">
<g clip-path="url(#clip0_197_134)">
<path d="M228.057 195.054V138.572H245.578C250.867 138.572 255.087 139.7 258.238 141.954C261.389 144.221 262.964 147.884 262.964 152.943C262.964 158.604 260.614 162.645 255.913 165.065C263.944 166.487 267.959 171.232 267.959 179.301C267.959 184.053 266.32 187.863 263.041 190.732C259.749 193.614 255.228 195.054 249.478 195.054H228.057ZM240.928 148.505V160.685H241.947C244.828 160.685 246.974 160.185 248.383 159.186C249.804 158.175 250.515 156.529 250.515 154.249C250.515 150.42 247.659 148.505 241.947 148.505H240.928ZM240.928 171.77V185.122H244.963C251.264 185.122 254.415 183.022 254.415 178.821C254.415 176.31 253.627 174.511 252.052 173.422C250.477 172.321 248.114 171.77 244.963 171.77H240.928ZM290.148 138.572H303.02V183.758H322.462V195.054H290.148V138.572ZM344.652 166.775C344.652 158.604 347.437 151.688 353.009 146.027C358.567 140.366 365.272 137.535 373.123 137.535C381.025 137.535 387.737 140.353 393.257 145.988C398.777 151.636 401.537 158.565 401.537 166.775C401.537 175.036 398.822 181.984 393.391 187.62C387.961 193.255 381.205 196.073 373.123 196.073C364.862 196.073 358.055 193.281 352.701 187.696C347.335 182.099 344.652 175.126 344.652 166.775ZM358.542 166.775C358.542 169.746 359.003 172.449 359.925 174.882C360.834 177.329 362.429 179.397 364.708 181.088C366.988 182.778 369.793 183.624 373.123 183.624C377.926 183.624 381.544 181.978 383.978 178.686C386.424 175.407 387.647 171.437 387.647 166.775C387.647 162.164 386.405 158.207 383.92 154.902C381.422 151.585 377.823 149.927 373.123 149.927C368.474 149.927 364.881 151.585 362.345 154.902C359.809 158.207 358.542 162.164 358.542 166.775ZM447.068 137.535C450.129 137.535 453.12 137.983 456.04 138.88C458.96 139.764 461.131 140.641 462.553 141.512L464.608 142.876L459.402 153.154C458.992 152.885 458.422 152.533 457.692 152.097C456.962 151.662 455.592 151.079 453.581 150.349C451.57 149.619 449.7 149.254 447.971 149.254C445.82 149.254 444.161 149.709 442.995 150.618C441.83 151.527 441.247 152.757 441.247 154.307C441.247 155.088 441.523 155.812 442.073 156.478C442.624 157.131 443.559 157.835 444.878 158.591C446.21 159.347 447.376 159.955 448.375 160.416C449.374 160.864 450.923 161.549 453.024 162.472C456.687 164.021 459.806 166.128 462.38 168.792C464.954 171.469 466.241 174.492 466.241 177.86C466.241 181.113 465.659 183.944 464.493 186.352C463.328 188.772 461.733 190.668 459.709 192.038C457.673 193.409 455.425 194.427 452.966 195.093C450.494 195.746 447.824 196.073 444.955 196.073C442.483 196.073 440.062 195.823 437.693 195.323C435.324 194.824 433.338 194.196 431.737 193.441C430.137 192.685 428.702 191.942 427.434 191.212C426.153 190.482 425.212 189.867 424.61 189.368L423.726 188.619L430.162 177.802C430.713 178.264 431.469 178.846 432.429 179.551C433.39 180.255 435.087 181.203 437.52 182.394C439.966 183.572 442.125 184.161 443.994 184.161C449.425 184.161 452.14 182.317 452.14 178.629C452.14 177.847 451.948 177.124 451.564 176.458C451.18 175.804 450.494 175.145 449.508 174.479C448.522 173.813 447.651 173.288 446.895 172.904C446.153 172.519 444.923 171.924 443.207 171.117C441.491 170.323 440.223 169.721 439.403 169.311C435.983 167.62 433.338 165.507 431.469 162.971C429.599 160.448 428.664 157.72 428.664 154.787C428.664 149.728 430.534 145.591 434.273 142.376C438.013 139.149 442.278 137.535 447.068 137.535ZM510.409 137.535C513.47 137.535 516.46 137.983 519.381 138.88C522.301 139.764 524.465 140.641 525.874 141.512L527.93 142.876L522.723 153.154C522.313 152.885 521.744 152.533 521.014 152.097C520.283 151.662 518.919 151.079 516.921 150.349C514.911 149.619 513.034 149.254 511.292 149.254C509.154 149.254 507.501 149.709 506.336 150.618C505.17 151.527 504.588 152.757 504.588 154.307C504.588 155.088 504.863 155.812 505.414 156.478C505.964 157.131 506.899 157.835 508.219 158.591C509.538 159.347 510.703 159.955 511.715 160.416C512.714 160.864 514.264 161.549 516.364 162.472C520.015 164.021 523.127 166.128 525.701 168.792C528.288 171.469 529.582 174.492 529.582 177.86C529.582 181.113 528.999 183.944 527.834 186.352C526.668 188.772 525.067 190.668 523.031 192.038C521.007 193.409 518.759 194.427 516.287 195.093C513.828 195.746 511.158 196.073 508.276 196.073C505.817 196.073 503.403 195.823 501.034 195.323C498.651 194.824 496.666 194.196 495.078 193.441C493.477 192.685 492.036 191.942 490.755 191.212C489.475 190.482 488.54 189.867 487.95 189.368L487.067 188.619L493.503 177.802C494.041 178.264 494.79 178.846 495.75 179.551C496.711 180.255 498.414 181.203 500.861 182.394C503.294 183.572 505.452 184.161 507.335 184.161C512.765 184.161 515.481 182.317 515.481 178.629C515.481 177.847 515.282 177.124 514.885 176.458C514.501 175.804 513.816 175.145 512.829 174.479C511.856 173.813 510.991 173.288 510.236 172.904C509.48 172.519 508.251 171.924 506.547 171.117C504.831 170.323 503.563 169.721 502.743 169.311C499.311 167.62 496.66 165.507 494.79 162.971C492.92 160.448 491.985 157.72 491.985 154.787C491.985 149.728 493.855 145.591 497.595 142.376C501.347 139.149 505.619 137.535 510.409 137.535ZM551.771 166.775C551.771 158.604 554.55 151.688 560.109 146.027C565.68 140.366 572.392 137.535 580.243 137.535C588.145 137.535 594.856 140.353 600.376 145.988C605.896 151.636 608.657 158.565 608.657 166.775C608.657 175.036 605.941 181.984 600.511 187.62C595.08 193.255 588.324 196.073 580.243 196.073C571.982 196.073 565.168 193.281 559.802 187.696C554.448 182.099 551.771 175.126 551.771 166.775ZM565.661 166.775C565.661 169.746 566.116 172.449 567.025 174.882C567.947 177.329 569.548 179.397 571.828 181.088C574.108 182.778 576.913 183.624 580.243 183.624C585.033 183.624 588.651 181.978 591.097 178.686C593.543 175.407 594.767 171.437 594.767 166.775C594.767 162.164 593.518 158.207 591.02 154.902C588.536 151.585 584.943 149.927 580.243 149.927C575.593 149.927 572.001 151.585 569.465 154.902C566.929 158.207 565.661 162.164 565.661 166.775ZM693.418 195.054H680.546L677.876 161.569H677.53L665.965 194.709H658.299L646.734 161.569H646.388L643.718 195.054H630.846L635.918 138.572H649.596L662.122 171.155L674.667 138.572H688.346L693.418 195.054ZM787.9 183.412C789.873 183.412 791.781 183.118 793.625 182.528C795.47 181.927 796.827 181.357 797.698 180.819L799.004 179.916L804.48 190.886C804.288 191.014 804.038 191.193 803.73 191.423C803.41 191.654 802.668 192.077 801.502 192.691C800.337 193.306 799.088 193.844 797.756 194.305C796.437 194.753 794.707 195.163 792.569 195.535C790.417 195.893 788.201 196.073 785.921 196.073C780.67 196.073 775.694 194.785 770.994 192.211C766.294 189.637 762.503 186.089 759.621 181.568C756.752 177.047 755.317 172.161 755.317 166.91C755.317 162.939 756.163 159.129 757.853 155.479C759.544 151.828 761.792 148.703 764.597 146.103C767.401 143.503 770.674 141.429 774.414 139.879C778.154 138.316 781.989 137.535 785.921 137.535C789.572 137.535 792.94 137.971 796.027 138.841C799.101 139.712 801.278 140.577 802.559 141.435L804.48 142.741L799.004 153.692C798.684 153.423 798.204 153.096 797.564 152.712C796.923 152.315 795.642 151.803 793.721 151.175C791.813 150.535 789.873 150.215 787.9 150.215C784.801 150.215 782.021 150.714 779.562 151.713C777.091 152.712 775.137 154.038 773.703 155.69C772.268 157.329 771.173 159.097 770.418 160.992C769.662 162.888 769.284 164.815 769.284 166.775C769.284 171.066 770.892 174.914 774.106 178.321C777.321 181.715 781.919 183.412 787.9 183.412ZM849.454 138.572H861.365L884.169 195.054H870.337L866.168 183.758H844.67L840.482 195.054H826.65L849.454 138.572ZM849.051 172.462H861.788L855.486 156.036H855.352L849.051 172.462ZM906.359 195.054V138.572H926.55C931.98 138.572 936.412 140.02 939.844 142.914C943.264 145.809 944.974 149.952 944.974 155.344C944.974 159.494 943.936 162.971 941.862 165.776C939.774 168.594 936.956 170.573 933.408 171.712L952.851 195.054H936.482L919.23 172.731V195.054H906.359ZM919.23 148.831V163.624H920.729C921.92 163.624 922.925 163.605 923.745 163.567C924.565 163.515 925.5 163.355 926.55 163.086C927.6 162.805 928.445 162.414 929.086 161.915C929.726 161.415 930.277 160.685 930.738 159.724C931.186 158.764 931.41 157.598 931.41 156.228C931.41 154.857 931.186 153.698 930.738 152.751C930.277 151.79 929.726 151.054 929.086 150.541C928.445 150.042 927.6 149.658 926.55 149.389C925.5 149.12 924.565 148.96 923.745 148.908C922.925 148.857 921.92 148.831 920.729 148.831H919.23ZM975.021 138.572H1007.33V149.869H987.892V161.088H1006.53V172.385H987.892V183.758H1007.33V195.054H975.021V138.572Z" fill="#333333"/>
<path d="M92.2512 22.8807C92.2512 27.5012 94.4451 30.7256 96.7055 32.7865C99.5309 35.3793 103.852 35.3793 106.678 32.7865C108.938 30.6923 111.132 27.5012 111.132 22.8807C111.132 13.2741 101.692 1.14111 101.692 1.14111C101.692 1.14111 92.2512 13.2408 92.2512 22.8807Z" fill="#333333"/>
<path d="M92.2512 61.1078C92.2512 65.7283 94.4451 68.9527 96.7055 71.0136C99.5309 73.6064 103.852 73.6064 106.678 71.0136C108.938 68.9194 111.132 65.7283 111.132 61.1078C111.132 51.5012 101.692 39.3682 101.692 39.3682C101.692 39.3682 92.2512 51.5012 92.2512 61.1078Z" fill="#333333"/>
<path d="M149.957 146.969C146.534 143.844 142.711 143.279 139.653 143.545C135.863 143.878 132.938 147.069 132.938 150.891C132.938 153.95 133.836 157.739 137.259 160.864C144.34 167.346 159.664 168.609 159.664 168.609C159.664 168.609 157.071 153.451 149.957 146.969Z" fill="#333333"/>
<path d="M176.417 121.207C172.329 119.013 168.473 119.412 165.581 120.41C161.991 121.673 159.93 125.495 160.861 129.185C161.625 132.177 163.387 135.601 167.475 137.795C175.952 142.349 191.11 139.822 191.11 139.822C191.11 139.822 184.894 125.761 176.417 121.207Z" fill="#333333"/>
<path d="M179.276 86.7364C174.722 87.5342 171.963 90.26 170.301 92.8528C168.24 96.0771 169.004 100.332 172.063 102.659C174.522 104.52 178.046 106.116 182.6 105.285C192.074 103.59 202.345 92.188 202.345 92.188C202.345 92.188 188.75 85.0412 179.276 86.7364Z" fill="#333333"/>
<path d="M175.553 74.7365C173.991 76.465 174.057 79.1243 175.653 80.8196C176.949 82.1825 178.91 83.4788 181.736 83.4456C187.619 83.3459 194.932 77.4622 194.932 77.4622C194.932 77.4622 187.42 71.8113 181.57 71.911C178.711 71.9775 176.783 73.3404 175.553 74.7365Z" fill="#333333"/>
<path d="M152.65 55.8888C153.381 58.1159 155.675 59.4123 157.935 58.8805C159.764 58.4483 161.891 57.4179 163.287 54.958C166.179 49.8389 164.849 40.5647 164.849 40.5647C164.849 40.5647 156.174 44.1547 153.282 49.2738C151.885 51.7336 152.085 54.0938 152.65 55.8888Z" fill="#333333"/>
<path d="M153.98 86.6366C153.98 88.9635 155.808 90.9247 158.102 91.0909C159.963 91.2571 162.323 90.8915 164.384 88.9635C168.705 84.9746 170.201 75.7004 170.201 75.7004C170.201 75.7004 160.861 76.5314 156.539 80.5203C154.478 82.4483 153.946 84.7751 153.98 86.6366Z" fill="#333333"/>
<path d="M125.658 35.7781C127.254 34.7808 128.916 33.0855 129.415 30.3266C130.478 24.5426 126.157 16.2324 126.157 16.2324C126.157 16.2324 119.143 22.4817 118.079 28.2656C117.581 31.0579 118.512 33.2185 119.642 34.7144C121.071 36.5426 123.697 37.008 125.658 35.7781Z" fill="#333333"/>
<path d="M183.032 108.576C180.273 107.944 178.079 108.808 176.517 109.905C174.589 111.235 174.024 113.828 175.187 115.856C176.118 117.484 177.747 119.213 180.506 119.844C186.223 121.141 194.733 117.152 194.733 117.152C194.733 117.152 188.783 109.872 183.032 108.576Z" fill="#333333"/>
<path d="M166.378 142.681C164.284 140.753 161.957 140.421 160.096 140.587C157.769 140.786 155.974 142.747 155.974 145.074C155.974 146.936 156.506 149.263 158.6 151.157C162.921 155.146 172.262 155.911 172.262 155.911C172.262 155.911 170.7 146.637 166.378 142.681Z" fill="#333333"/>
<path d="M129.016 161.562C126.755 160.997 124.428 162.26 123.664 164.454C123.066 166.216 122.8 168.576 124.162 171.069C126.955 176.221 135.564 180.011 135.564 180.011C135.564 180.011 137.093 170.736 134.301 165.584C132.971 163.091 130.844 161.994 129.016 161.562Z" fill="#333333"/>
<path d="M170.101 68.1214C172.96 69.2849 176.783 69.8832 180.971 67.8887C189.647 63.7669 196.595 50.0383 196.595 50.0383C196.595 50.0383 181.603 46.7143 172.894 50.8361C168.705 52.8306 166.744 56.1547 165.847 59.1131C164.716 62.7696 166.578 66.6921 170.101 68.1214Z" fill="#333333"/>
<path d="M127.952 86.0384C128.916 89.7281 132.539 92.0882 136.295 91.4567C139.32 90.9581 142.91 89.429 145.403 85.573C150.622 77.4955 149.326 62.2046 149.326 62.2046C149.326 62.2046 134.833 67.224 129.614 75.3016C127.088 79.1908 127.187 83.0467 127.952 86.0384Z" fill="#333333"/>
<path d="M143.176 48.8086C146.102 47.8446 149.392 45.8169 151.287 41.5953C155.243 32.8197 151.62 17.8945 151.62 17.8945C151.62 17.8945 138.024 25.0745 134.102 33.8501C132.207 38.0717 132.872 41.8944 134.068 44.7199C135.597 48.2435 139.553 50.0052 143.176 48.8086Z" fill="#333333"/>
<path d="M125.625 70.6146C127.62 65.0966 124.728 56.1548 124.728 56.1548C124.728 56.1548 116.783 61.1742 114.789 66.6922C113.825 69.3514 114.423 71.6451 115.287 73.3071C116.351 75.3681 118.844 76.2656 121.005 75.3681C122.733 74.67 124.661 73.2739 125.625 70.6146Z" fill="#333333"/>
<path d="M63.7304 143.545C60.6723 143.279 56.8163 143.844 53.4258 146.969C46.3454 153.451 43.7526 168.609 43.7526 168.609C43.7526 168.609 59.0767 167.379 66.157 160.864C69.5809 157.739 70.4451 153.983 70.4784 150.891C70.4451 147.069 67.5199 143.878 63.7304 143.545Z" fill="#333333"/>
<path d="M42.5227 129.185C43.4535 125.495 41.3925 121.673 37.8025 120.41C34.9105 119.412 31.0546 119.013 26.966 121.207C18.4895 125.761 12.3067 139.822 12.3067 139.822C12.3067 139.822 27.4646 142.349 35.941 137.795C39.9632 135.601 41.7582 132.177 42.5227 129.185Z" fill="#333333"/>
<path d="M31.3205 102.659C34.3455 100.332 35.11 96.0771 33.0823 92.8528C31.4203 90.26 28.6613 87.5342 24.1072 86.7364C14.6336 85.0412 1.03802 92.188 1.03802 92.188C1.03802 92.188 11.3427 103.59 20.7832 105.285C25.3372 106.116 28.8939 104.52 31.3205 102.659Z" fill="#333333"/>
<path d="M21.8136 71.911C15.93 71.8113 8.45074 77.4622 8.45074 77.4622C8.45074 77.4622 15.7638 83.3459 21.6474 83.4456C24.4729 83.4788 26.4341 82.1825 27.7305 80.8196C29.3261 79.1243 29.3593 76.465 27.8302 74.7365C26.5671 73.3404 24.6391 71.9775 21.8136 71.911Z" fill="#333333"/>
<path d="M45.4147 58.8804C47.6751 59.4123 50.0019 58.0827 50.7 55.8888C51.2651 54.0937 51.4645 51.7336 50.0684 49.2738C47.1765 44.1547 38.5006 40.5647 38.5006 40.5647C38.5006 40.5647 37.1377 49.8389 40.0629 54.958C41.459 57.4178 43.5864 58.4816 45.4147 58.8804Z" fill="#333333"/>
<path d="M33.1488 75.7336C33.1488 75.7336 34.6779 85.0078 38.9659 88.9967C41.0269 90.9247 43.387 91.2571 45.2485 91.1242C47.5754 90.9247 49.3704 88.9967 49.3704 86.6699C49.3704 84.8084 48.8385 82.4815 46.7776 80.5535C42.5227 76.5314 33.1488 75.7336 33.1488 75.7336Z" fill="#333333"/>
<path d="M77.6916 35.7781C79.6529 37.008 82.2789 36.5426 83.675 34.6811C84.8052 33.1853 85.7692 31.0246 85.2373 28.2324C84.1736 22.4485 77.1598 16.1992 77.1598 16.1992C77.1598 16.1992 72.8385 24.5426 73.9022 30.2933C74.4673 33.0856 76.1293 34.7808 77.6916 35.7781Z" fill="#333333"/>
<path d="M22.8773 119.811C25.6363 119.18 27.2319 117.451 28.1959 115.822C29.3593 113.795 28.761 111.202 26.8662 109.872C25.3372 108.808 23.11 107.944 20.351 108.543C14.6336 109.839 8.65021 117.085 8.65021 117.085C8.65021 117.085 17.1266 121.108 22.8773 119.811Z" fill="#333333"/>
<path d="M47.3759 145.041C47.3759 142.714 45.5809 140.753 43.254 140.554C41.3925 140.387 39.0324 140.753 36.9715 142.648C32.6501 146.637 31.0878 155.878 31.0878 155.878C31.0878 155.878 40.4285 155.113 44.7499 151.124C46.844 149.229 47.3759 146.936 47.3759 145.041Z" fill="#333333"/>
<path d="M74.3343 161.562C72.5061 162.027 70.4119 163.091 69.049 165.584C66.2568 170.736 67.7858 180.011 67.7858 180.011C67.7858 180.011 76.3952 176.254 79.1875 171.069C80.5504 168.576 80.2844 166.216 79.6861 164.454C78.9216 162.26 76.5947 160.997 74.3343 161.562Z" fill="#333333"/>
<path d="M22.4119 67.9222C26.6003 69.9167 30.423 69.3183 33.2817 68.1549C36.8053 66.7255 38.6668 62.8031 37.5366 59.1466C36.6391 56.2214 34.6778 52.864 30.4895 50.8696C21.8136 46.7477 6.7887 50.0718 6.7887 50.0718C6.7887 50.0718 13.7028 63.8003 22.4119 67.9222Z" fill="#333333"/>
<path d="M57.9465 85.5398C60.4728 89.429 64.0296 90.9248 67.0545 91.4234C70.8108 92.055 74.4673 89.6949 75.398 86.0052C76.1626 83.0135 76.2623 79.1575 73.736 75.2683C68.5171 67.1908 53.9909 62.1382 53.9909 62.1382C53.9909 62.1382 52.6945 77.4955 57.9465 85.5398Z" fill="#333333"/>
<path d="M60.1737 48.8084C63.7969 50.0051 67.7526 48.2101 69.2484 44.7198C70.4451 41.8943 71.1432 38.0716 69.2152 33.85C65.2595 25.0744 51.6972 17.8943 51.6972 17.8943C51.6972 17.8943 48.074 32.8195 52.0296 41.5951C53.9576 45.85 57.2817 47.8444 60.1737 48.8084Z" fill="#333333"/>
<path d="M78.6224 56.1548C78.6224 56.1548 75.7304 65.0966 77.7249 70.6146C78.6889 73.2739 80.6168 74.67 82.3454 75.3681C84.506 76.2656 86.9991 75.3681 88.0628 73.3071C88.9271 71.6451 89.5254 69.3514 88.5614 66.6922C86.567 61.1742 78.6224 56.1548 78.6224 56.1548Z" fill="#333333"/>
<path d="M101.692 120.675C112.694 120.675 121.636 111.734 121.636 100.731C121.636 89.7283 112.694 80.7864 101.692 80.7864C90.6889 80.7864 81.747 89.7283 81.747 100.731C81.747 111.734 90.6889 120.675 101.692 120.675ZM101.692 88.0995C108.639 88.0995 114.323 93.7504 114.323 100.731C114.323 107.678 108.672 113.362 101.692 113.362C94.711 113.362 89.06 107.712 89.06 100.731C89.06 93.7837 94.711 88.0995 101.692 88.0995Z" fill="#999999"/>
<path d="M78.5891 211.024C86.9326 202.083 91.5531 190.382 91.5531 178.116V164.62C91.5531 152.155 86.8329 140.321 78.2235 131.279C63.4645 115.789 45.8136 105.95 45.0823 105.518L41.5255 111.933C41.6917 112.033 58.9105 121.639 72.9049 136.332C80.2179 143.977 84.2069 154.016 84.2069 164.62V178.116C84.2069 188.554 80.3177 198.459 73.2041 206.038C64.5615 215.312 54.157 221.661 42.29 224.952L44.218 231.999C57.4479 228.343 69.0157 221.296 78.5891 211.024Z" fill="#999999"/>
<path d="M106.013 195.268L105.182 193.373V164.088C105.182 149.994 110.534 136.631 120.273 126.426C135.697 110.238 154.146 99.9331 154.91 99.501L151.354 93.1187C150.523 93.5841 131.143 104.387 114.955 121.374C108.938 127.689 104.384 135.069 101.492 143.08C98.6002 135.069 94.0794 127.689 88.0296 121.374C71.8412 104.387 52.4618 93.5509 51.6307 93.1187L48.074 99.501C48.8385 99.9331 67.2872 110.238 82.711 126.426C92.4174 136.631 97.7692 149.994 97.8024 164.088V193.373L96.9714 195.268C96.4063 196.598 82.3786 228.01 45.8801 238.083L47.808 245.13C79.6861 236.354 95.9077 212.487 101.426 202.548C106.977 212.487 123.165 236.321 155.043 245.13L156.971 238.083C120.572 228.01 106.578 196.598 106.013 195.268Z" fill="#999999"/>
<path d="M130.113 136.299C144.074 121.673 161.259 112.033 161.492 111.9L159.73 108.709L157.969 105.518C157.237 105.916 139.586 115.789 124.827 131.279C116.218 140.288 111.498 152.121 111.498 164.62V178.149C111.498 190.282 115.952 201.817 123.996 210.592C133.669 221.13 145.37 228.343 158.766 232.033L160.694 224.986C148.628 221.661 138.09 215.146 129.381 205.639C122.567 198.193 118.777 188.421 118.777 178.149V164.62C118.811 154.016 122.833 143.977 130.113 136.299Z" fill="#999999"/>
<path d="M107.775 224.62C106.611 223.29 105.448 221.894 104.384 220.531L101.525 216.875L98.6667 220.531C97.5697 221.927 96.4395 223.29 95.2761 224.62C87.9631 232.963 79.4534 239.878 70.0462 245.13H83.6085C89.8246 240.609 95.6085 235.357 100.794 229.44C101.06 229.141 101.293 228.842 101.559 228.542C101.825 228.842 102.057 229.141 102.323 229.44C107.509 235.357 113.259 240.609 119.509 245.13H133.071C123.631 239.878 115.088 232.963 107.775 224.62Z" fill="#999999"/>
</g>
<defs>
<clipPath id="clip0_197_134">
<rect width="1007" height="245" fill="white" transform="translate(0.5 0.5)"/>
</clipPath>
</defs>
</svg>
