<svg xmlns="http://www.w3.org/2000/svg" xmlns:xlink="http://www.w3.org/1999/xlink" version="1.1" width="1280" height="1024" viewBox="0 0 1280 1024" xml:space="preserve">
<desc>Created with Fabric.js 5.3.0</desc>
<defs>
</defs>
<g transform="matrix(1 0 0 1 640 512)" id="background-logo"  >
<rect style="stroke: none; stroke-width: 0; stroke-dasharray: none; stroke-linecap: butt; stroke-dashoffset: 0; stroke-linejoin: miter; stroke-miterlimit: 4; fill: rgb(255,255,255); fill-opacity: 0; fill-rule: nonzero; opacity: 1;"  paint-order="stroke"  x="-640" y="-512" rx="0" ry="0" width="1280" height="1024" />
</g>
<g transform="matrix(1.9211538461538462 0 0 1.9211538461538462 741.195565676547 525.3038119966502)" id="text-logo"  >
<g style=""  paint-order="stroke"   >
		<g transform="matrix(1 0 0 1 0 0)" id="text-logo-path-0"  >
<filter id="SVGID_314746" y="-46.255333114538885%" height="192.51066622907777%" x="-21.9722407119789%" width="143.9444814239578%" >
	<feGaussianBlur in="SourceAlpha" stdDeviation="4"></feGaussianBlur>
	<feOffset dx="0" dy="0" result="oBlur" ></feOffset>
	<feFlood flood-color="rgb(0,0,0)" flood-opacity="1"/>
	<feComposite in2="oBlur" operator="in" />
	<feMerge>
		<feMergeNode></feMergeNode>
		<feMergeNode in="SourceGraphic"></feMergeNode>
	</feMerge>
</filter>
<path style="stroke: rgb(255,255,255); stroke-width: 0; stroke-dasharray: none; stroke-linecap: butt; stroke-dashoffset: 0; stroke-linejoin: miter; stroke-miterlimit: 4; fill: rgb(241,29,124); fill-rule: nonzero; opacity: 1;filter: url(#SVGID_314746);"  paint-order="stroke"  transform=" translate(-204.245, 14.705)" d="M 1.43 0 L 1.43 -29.4 L 10.55 -29.4 Q 14.68 -29.4 17.14 -27.64 Q 19.6 -25.87 19.6 -21.92 L 19.6 -21.92 Q 19.6 -17.5 15.93 -15.61 L 15.93 -15.61 Q 22.2 -14.5 22.2 -8.2 L 22.2 -8.2 Q 22.2 -4.49 19.64 -2.25 Q 17.07 0 12.58 0 L 12.58 0 L 1.43 0 Z M 8.13 -24.23 L 8.13 -17.89 L 8.66 -17.89 Q 10.91 -17.89 12.01 -18.67 Q 13.12 -19.46 13.12 -21.24 L 13.12 -21.24 Q 13.12 -24.23 8.66 -24.23 L 8.66 -24.23 L 8.13 -24.23 Z M 8.13 -12.12 L 8.13 -5.17 L 10.23 -5.17 Q 15.15 -5.17 15.15 -8.45 L 15.15 -8.45 Q 15.15 -10.41 13.92 -11.26 Q 12.69 -12.12 10.23 -12.12 L 10.23 -12.12 L 8.13 -12.12 Z M 33.75 -29.4 L 40.45 -29.4 L 40.45 -5.88 L 50.57 -5.88 L 50.57 0 L 33.75 0 L 33.75 -29.4 Z M 62.12 -14.72 L 62.12 -14.72 Q 62.12 -21.1 66.47 -25.52 Q 70.81 -29.94 76.94 -29.94 L 76.94 -29.94 Q 83.11 -29.94 87.42 -25.54 Q 91.73 -21.13 91.73 -14.72 L 91.73 -14.72 Q 91.73 -8.27 87.49 -3.87 Q 83.25 0.53 76.94 0.53 L 76.94 0.53 Q 70.49 0.53 66.31 -3.83 Q 62.12 -8.2 62.12 -14.72 Z M 69.35 -14.72 L 69.35 -14.72 Q 69.35 -12.4 70.07 -10.5 Q 70.78 -8.59 72.56 -7.27 Q 74.34 -5.95 76.94 -5.95 L 76.94 -5.95 Q 80.69 -5.95 82.59 -8.52 Q 84.5 -11.08 84.5 -14.72 L 84.5 -14.72 Q 84.5 -18.32 82.56 -20.9 Q 80.61 -23.49 76.94 -23.49 L 76.94 -23.49 Q 73.31 -23.49 71.33 -20.9 Q 69.35 -18.32 69.35 -14.72 Z M 115.43 -29.94 L 115.43 -29.94 Q 117.82 -29.94 120.1 -29.24 Q 122.38 -28.55 123.49 -27.87 L 123.49 -27.87 L 124.56 -27.16 L 121.85 -21.81 Q 121.53 -22.02 120.96 -22.36 Q 120.39 -22.7 118.82 -23.27 Q 117.25 -23.84 115.9 -23.84 L 115.9 -23.84 Q 114.22 -23.84 113.31 -23.13 Q 112.4 -22.42 112.4 -21.21 L 112.4 -21.21 Q 112.4 -20.6 112.83 -20.08 Q 113.26 -19.57 114.29 -18.98 Q 115.33 -18.39 116.11 -18.03 Q 116.89 -17.68 118.53 -16.96 L 118.53 -16.96 Q 121.39 -15.75 123.4 -13.67 Q 125.41 -11.58 125.41 -8.95 L 125.41 -8.95 Q 125.41 -6.41 124.5 -4.53 Q 123.59 -2.64 122.01 -1.57 Q 120.42 -0.5 118.5 0.02 Q 116.57 0.53 114.33 0.53 L 114.33 0.53 Q 112.4 0.53 110.55 0.14 Q 108.7 -0.25 107.45 -0.84 Q 106.2 -1.43 105.21 -2 Q 104.21 -2.57 103.74 -2.96 L 103.74 -2.96 L 103.28 -3.35 L 106.63 -8.98 Q 107.06 -8.62 107.81 -8.07 Q 108.56 -7.52 110.46 -6.59 Q 112.37 -5.67 113.83 -5.67 L 113.83 -5.67 Q 118.07 -5.67 118.07 -8.55 L 118.07 -8.55 Q 118.07 -9.16 117.77 -9.68 Q 117.47 -10.19 116.7 -10.71 Q 115.93 -11.23 115.34 -11.53 Q 114.76 -11.83 113.42 -12.46 Q 112.08 -13.08 111.44 -13.4 L 111.44 -13.4 Q 108.77 -14.72 107.31 -16.7 Q 105.85 -18.67 105.85 -20.96 L 105.85 -20.96 Q 105.85 -24.91 108.77 -27.42 Q 111.69 -29.94 115.43 -29.94 Z M 148.4 -29.94 L 148.4 -29.94 Q 150.79 -29.94 153.07 -29.24 Q 155.35 -28.55 156.45 -27.87 L 156.45 -27.87 L 157.52 -27.16 L 154.81 -21.81 Q 154.49 -22.02 153.92 -22.36 Q 153.35 -22.7 151.79 -23.27 Q 150.22 -23.84 148.86 -23.84 L 148.86 -23.84 Q 147.19 -23.84 146.28 -23.13 Q 145.37 -22.42 145.37 -21.21 L 145.37 -21.21 Q 145.37 -20.6 145.8 -20.08 Q 146.23 -19.57 147.26 -18.98 Q 148.29 -18.39 149.08 -18.03 Q 149.86 -17.68 151.5 -16.96 L 151.5 -16.96 Q 154.35 -15.75 156.36 -13.67 Q 158.38 -11.58 158.38 -8.95 L 158.38 -8.95 Q 158.38 -6.41 157.47 -4.53 Q 156.56 -2.64 154.97 -1.57 Q 153.39 -0.5 151.46 0.02 Q 149.54 0.53 147.29 0.53 L 147.29 0.53 Q 145.37 0.53 143.52 0.14 Q 141.66 -0.25 140.42 -0.84 Q 139.17 -1.43 138.17 -2 Q 137.17 -2.57 136.71 -2.96 L 136.71 -2.96 L 136.25 -3.35 L 139.6 -8.98 Q 140.02 -8.62 140.77 -8.07 Q 141.52 -7.52 143.43 -6.59 Q 145.33 -5.67 146.8 -5.67 L 146.8 -5.67 Q 151.04 -5.67 151.04 -8.55 L 151.04 -8.55 Q 151.04 -9.16 150.73 -9.68 Q 150.43 -10.19 149.66 -10.71 Q 148.9 -11.23 148.31 -11.53 Q 147.72 -11.83 146.39 -12.46 Q 145.05 -13.08 144.41 -13.4 L 144.41 -13.4 Q 141.73 -14.72 140.27 -16.7 Q 138.81 -18.67 138.81 -20.96 L 138.81 -20.96 Q 138.81 -24.91 141.73 -27.42 Q 144.66 -29.94 148.4 -29.94 Z M 169.93 -14.72 L 169.93 -14.72 Q 169.93 -21.1 174.27 -25.52 Q 178.62 -29.94 184.75 -29.94 L 184.75 -29.94 Q 190.92 -29.94 195.23 -25.54 Q 199.54 -21.13 199.54 -14.72 L 199.54 -14.72 Q 199.54 -8.27 195.3 -3.87 Q 191.06 0.53 184.75 0.53 L 184.75 0.53 Q 178.3 0.53 174.11 -3.83 Q 169.93 -8.2 169.93 -14.72 Z M 177.16 -14.72 L 177.16 -14.72 Q 177.16 -12.4 177.87 -10.5 Q 178.59 -8.59 180.37 -7.27 Q 182.15 -5.95 184.75 -5.95 L 184.75 -5.95 Q 188.49 -5.95 190.4 -8.52 Q 192.31 -11.08 192.31 -14.72 L 192.31 -14.72 Q 192.31 -18.32 190.36 -20.9 Q 188.42 -23.49 184.75 -23.49 L 184.75 -23.49 Q 181.12 -23.49 179.14 -20.9 Q 177.16 -18.32 177.16 -14.72 Z M 243.66 0 L 236.96 0 L 235.57 -17.43 L 235.39 -17.43 L 229.37 -0.18 L 225.38 -0.18 L 219.36 -17.43 L 219.18 -17.43 L 217.79 0 L 211.09 0 L 213.73 -29.4 L 220.85 -29.4 L 227.37 -12.44 L 233.9 -29.4 L 241.02 -29.4 L 243.66 0 Z M 292.84 -6.06 L 292.84 -6.06 Q 294.38 -6.06 295.82 -6.52 Q 297.26 -6.99 297.94 -7.41 L 297.94 -7.41 L 298.62 -7.88 L 301.47 -2.17 Q 301.32 -2.07 301.08 -1.89 Q 300.83 -1.71 299.92 -1.23 Q 299.01 -0.75 297.97 -0.39 Q 296.94 -0.04 295.27 0.25 Q 293.59 0.53 291.81 0.53 L 291.81 0.53 Q 287.71 0.53 284.04 -1.48 Q 280.37 -3.49 278.12 -7.02 Q 275.88 -10.55 275.88 -14.65 L 275.88 -14.65 Q 275.88 -17.75 277.2 -20.6 Q 278.52 -23.45 280.71 -25.48 Q 282.9 -27.51 285.82 -28.72 Q 288.74 -29.94 291.81 -29.94 L 291.81 -29.94 Q 294.66 -29.94 297.07 -29.26 Q 299.47 -28.58 300.47 -27.91 L 300.47 -27.91 L 301.47 -27.23 L 298.62 -21.53 Q 298.37 -21.74 297.87 -22.04 Q 297.37 -22.35 295.87 -22.84 Q 294.38 -23.34 292.84 -23.34 L 292.84 -23.34 Q 290.42 -23.34 288.5 -22.56 Q 286.57 -21.78 285.45 -20.49 Q 284.33 -19.21 283.74 -17.73 Q 283.15 -16.25 283.15 -14.72 L 283.15 -14.72 Q 283.15 -11.37 285.66 -8.71 Q 288.17 -6.06 292.84 -6.06 Z M 324.88 -29.4 L 331.08 -29.4 L 342.95 0 L 335.75 0 L 333.58 -5.88 L 322.39 -5.88 L 320.21 0 L 313.01 0 L 324.88 -29.4 Z M 324.67 -11.76 L 331.3 -11.76 L 328.02 -20.31 L 327.95 -20.31 L 324.67 -11.76 Z M 354.5 0 L 354.5 -29.4 L 365.01 -29.4 Q 369.25 -29.4 371.93 -27.14 Q 374.6 -24.88 374.6 -20.67 L 374.6 -20.67 Q 374.6 -17.43 372.98 -15.24 Q 371.35 -13.04 368.58 -12.15 L 368.58 -12.15 L 378.7 0 L 370.18 0 L 361.2 -11.62 L 361.2 0 L 354.5 0 Z M 361.2 -24.06 L 361.2 -16.36 L 361.98 -16.36 Q 362.91 -16.36 363.55 -16.39 Q 364.19 -16.43 365.01 -16.64 Q 365.83 -16.86 366.33 -17.25 Q 366.83 -17.64 367.19 -18.39 Q 367.54 -19.14 367.54 -20.21 Q 367.54 -21.28 367.19 -22.02 Q 366.83 -22.77 366.33 -23.17 Q 365.83 -23.56 365.01 -23.77 Q 364.19 -23.98 363.55 -24.02 Q 362.91 -24.06 361.98 -24.06 L 361.98 -24.06 L 361.2 -24.06 Z M 390.24 -29.4 L 407.06 -29.4 L 407.06 -23.52 L 396.94 -23.52 L 396.94 -17.68 L 406.64 -17.68 L 406.64 -11.8 L 396.94 -11.8 L 396.94 -5.88 L 407.06 -5.88 L 407.06 0 L 390.24 0 L 390.24 -29.4 Z" stroke-linecap="round" />
</g>
</g>
</g>
<g transform="matrix(1.2368819166019427 0 0 1.2368819166019427 225.19160819156963 481.6352969398073)" id="logo-logo"  >
<g style=""  paint-order="stroke"   >
		<g transform="matrix(0.2687479402025406 0 0 0.2687479402025406 0 -26.323860742838832)"  >
<g style=""  paint-order="stroke"   >
		<g transform="matrix(1 0 0 1 0 -218.52500000000003)"  >
<path style="stroke: none; stroke-width: 1; stroke-dasharray: none; stroke-linecap: butt; stroke-dashoffset: 0; stroke-linejoin: miter; stroke-miterlimit: 4; fill: rgb(241,29,124); fill-rule: nonzero; opacity: 1;"  paint-order="stroke"  transform=" translate(-498, -143.425)" d="M 469.6 158.3 C 469.6 172.20000000000002 476.20000000000005 181.9 483 188.10000000000002 C 491.5 195.90000000000003 504.5 195.90000000000003 513 188.10000000000002 C 519.8 181.8 526.4 172.20000000000002 526.4 158.3 C 526.4 129.4 498 92.9 498 92.9 C 498 92.9 469.6 129.3 469.6 158.3 z" stroke-linecap="round" />
</g>
		<g transform="matrix(1 0 0 1 0 -103.52500000000003)"  >
<path style="stroke: none; stroke-width: 1; stroke-dasharray: none; stroke-linecap: butt; stroke-dashoffset: 0; stroke-linejoin: miter; stroke-miterlimit: 4; fill: rgb(241,29,124); fill-rule: nonzero; opacity: 1;"  paint-order="stroke"  transform=" translate(-498, -258.425)" d="M 469.6 273.3 C 469.6 287.2 476.20000000000005 296.90000000000003 483 303.1 C 491.5 310.90000000000003 504.5 310.90000000000003 513 303.1 C 519.8 296.8 526.4 287.20000000000005 526.4 273.3 C 526.4 244.4 498 207.9 498 207.9 C 498 207.9 469.6 244.4 469.6 273.3 z" stroke-linecap="round" />
</g>
		<g transform="matrix(1 0 0 1 134.20000000000005 196.96263397167877)"  >
<path style="stroke: none; stroke-width: 1; stroke-dasharray: none; stroke-linecap: butt; stroke-dashoffset: 0; stroke-linejoin: miter; stroke-miterlimit: 4; fill: rgb(241,29,124); fill-rule: nonzero; opacity: 1;"  paint-order="stroke"  transform=" translate(-632.2, -558.9126339716788)" d="M 643.2 531.6 C 632.9000000000001 522.2 621.4000000000001 520.5 612.2 521.3000000000001 C 600.8000000000001 522.3000000000001 592 531.9000000000001 592 543.4000000000001 C 592 552.6000000000001 594.7 564.0000000000001 605 573.4000000000001 C 626.3 592.9000000000001 672.4 596.7 672.4 596.7 C 672.4 596.7 664.6 551.1 643.2 531.6 z" stroke-linecap="round" />
</g>
		<g transform="matrix(1 0 0 1 223.16454062586126 118.79404955880875)"  >
<path style="stroke: none; stroke-width: 1; stroke-dasharray: none; stroke-linecap: butt; stroke-dashoffset: 0; stroke-linejoin: miter; stroke-miterlimit: 4; fill: rgb(241,29,124); fill-rule: nonzero; opacity: 1;"  paint-order="stroke"  transform=" translate(-721.1645406258613, -480.7440495588088)" d="M 722.8 454.1 C 710.5 447.5 698.9 448.70000000000005 690.1999999999999 451.70000000000005 C 679.4 455.50000000000006 673.1999999999999 467.00000000000006 675.9999999999999 478.1 C 678.2999999999998 487.1 683.5999999999999 497.40000000000003 695.8999999999999 504 C 721.3999999999999 517.7 766.9999999999999 510.1 766.9999999999999 510.1 C 766.9999999999999 510.1 748.3 467.8 722.8 454.1 z" stroke-linecap="round" />
</g>
		<g transform="matrix(1 0 0 1 252.86316255374868 16.298364816445883)"  >
<path style="stroke: none; stroke-width: 1; stroke-dasharray: none; stroke-linecap: butt; stroke-dashoffset: 0; stroke-linejoin: miter; stroke-miterlimit: 4; fill: rgb(241,29,124); fill-rule: nonzero; opacity: 1;"  paint-order="stroke"  transform=" translate(-750.8631625537487, -378.2483648164459)" d="M 731.4 350.4 C 717.6999999999999 352.79999999999995 709.4 361 704.4 368.79999999999995 C 698.1999999999999 378.49999999999994 700.5 391.29999999999995 709.6999999999999 398.29999999999995 C 717.0999999999999 403.9 727.6999999999999 408.69999999999993 741.4 406.19999999999993 C 769.9 401.0999999999999 800.8 366.79999999999995 800.8 366.79999999999995 C 800.8 366.79999999999995 759.9 345.3 731.4 350.4 z" stroke-linecap="round" />
</g>
		<g transform="matrix(1 0 0 1 249.64251678886 -38.80102094823786)"  >
<path style="stroke: none; stroke-width: 1; stroke-dasharray: none; stroke-linecap: butt; stroke-dashoffset: 0; stroke-linejoin: miter; stroke-miterlimit: 4; fill: rgb(241,29,124); fill-rule: nonzero; opacity: 1;"  paint-order="stroke"  transform=" translate(-747.64251678886, -323.1489790517622)" d="M 720.2 314.3 C 715.5 319.5 715.7 327.5 720.5 332.6 C 724.4 336.70000000000005 730.3 340.6 738.8 340.5 C 756.5 340.2 778.5 322.5 778.5 322.5 C 778.5 322.5 755.9 305.5 738.3 305.8 C 729.7 306 723.9 310.1 720.2 314.3 z" stroke-linecap="round" />
</g>
		<g transform="matrix(1 0 0 1 171.46395896160823 -122.72106024283289)"  >
<path style="stroke: none; stroke-width: 1; stroke-dasharray: none; stroke-linecap: butt; stroke-dashoffset: 0; stroke-linejoin: miter; stroke-miterlimit: 4; fill: rgb(241,29,124); fill-rule: nonzero; opacity: 1;"  paint-order="stroke"  transform=" translate(-669.4639589616082, -239.22893975716715)" d="M 651.3 257.6 C 653.5 264.3 660.4 268.20000000000005 667.1999999999999 266.6 C 672.6999999999999 265.3 679.0999999999999 262.20000000000005 683.3 254.8 C 692 239.4 688 211.5 688 211.5 C 688 211.5 661.9 222.3 653.2 237.7 C 649 245.1 649.6 252.2 651.3 257.6 z" stroke-linecap="round" />
</g>
		<g transform="matrix(1 0 0 1 181.69782968715322 -21.54627903669666)"  >
<path style="stroke: none; stroke-width: 1; stroke-dasharray: none; stroke-linecap: butt; stroke-dashoffset: 0; stroke-linejoin: miter; stroke-miterlimit: 4; fill: rgb(241,29,124); fill-rule: nonzero; opacity: 1;"  paint-order="stroke"  transform=" translate(-679.6978296871532, -340.4037209633034)" d="M 655.3 350.1 C 655.3 357.1 660.8 363 667.6999999999999 363.5 C 673.3 364 680.4 362.9 686.5999999999999 357.1 C 699.5999999999999 345.1 704.0999999999999 317.20000000000005 704.0999999999999 317.20000000000005 C 704.0999999999999 317.20000000000005 675.9999999999999 319.70000000000005 662.9999999999999 331.70000000000005 C 656.8 337.5 655.2 344.5 655.3 350.1 z" stroke-linecap="round" />
</g>
		<g transform="matrix(1 0 0 1 66.39606172301137 -193.21814468399924)"  >
<path style="stroke: none; stroke-width: 1; stroke-dasharray: none; stroke-linecap: butt; stroke-dashoffset: 0; stroke-linejoin: miter; stroke-miterlimit: 4; fill: rgb(241,29,124); fill-rule: nonzero; opacity: 1;"  paint-order="stroke"  transform=" translate(-564.3960617230114, -168.7318553160008)" d="M 570.1 197.1 C 574.9 194.1 579.9 189 581.4 180.7 C 584.6 163.29999999999998 571.6 138.29999999999998 571.6 138.29999999999998 C 571.6 138.29999999999998 550.5 157.1 547.3000000000001 174.5 C 545.8000000000001 182.9 548.6 189.4 552.0000000000001 193.9 C 556.3 199.4 564.2 200.8 570.1 197.1 z" stroke-linecap="round" />
</g>
		<g transform="matrix(1 0 0 1 249.59441660347693 71.16817766846896)"  >
<path style="stroke: none; stroke-width: 1; stroke-dasharray: none; stroke-linecap: butt; stroke-dashoffset: 0; stroke-linejoin: miter; stroke-miterlimit: 4; fill: rgb(241,29,124); fill-rule: nonzero; opacity: 1;"  paint-order="stroke"  transform=" translate(-747.5944166034769, -433.118177668469)" d="M 742.7 416.1 C 734.4000000000001 414.20000000000005 727.8000000000001 416.8 723.1 420.1 C 717.3000000000001 424.1 715.6 431.90000000000003 719.1 438 C 721.9 442.9 726.8000000000001 448.1 735.1 450 C 752.3000000000001 453.9 777.9 441.9 777.9 441.9 C 777.9 441.9 760 420 742.7 416.1 z" stroke-linecap="round" />
</g>
		<g transform="matrix(1 0 0 1 187.80000000000007 173.4435828386895)"  >
<path style="stroke: none; stroke-width: 1; stroke-dasharray: none; stroke-linecap: butt; stroke-dashoffset: 0; stroke-linejoin: miter; stroke-miterlimit: 4; fill: rgb(241,29,124); fill-rule: nonzero; opacity: 1;"  paint-order="stroke"  transform=" translate(-685.8000000000001, -535.3935828386896)" d="M 692.6 518.7 C 686.3000000000001 512.9000000000001 679.3000000000001 511.90000000000003 673.7 512.4000000000001 C 666.7 513.0000000000001 661.3000000000001 518.9000000000001 661.3000000000001 525.9000000000001 C 661.3000000000001 531.5000000000001 662.9000000000001 538.5000000000001 669.2 544.2 C 682.2 556.2 710.3000000000001 558.5 710.3000000000001 558.5 C 710.3000000000001 558.5 705.6 530.6 692.6 518.7 z" stroke-linecap="round" />
</g>
		<g transform="matrix(1 0 0 1 83.89326529195137 241.09766424463578)"  >
<path style="stroke: none; stroke-width: 1; stroke-dasharray: none; stroke-linecap: butt; stroke-dashoffset: 0; stroke-linejoin: miter; stroke-miterlimit: 4; fill: rgb(241,29,124); fill-rule: nonzero; opacity: 1;"  paint-order="stroke"  transform=" translate(-581.8932652919514, -603.0476642446358)" d="M 580.2 575.5 C 573.4000000000001 573.8 566.4000000000001 577.6 564.1 584.2 C 562.3000000000001 589.5 561.5 596.6 565.6 604.1 C 574 619.6 599.9 631 599.9 631 C 599.9 631 604.5 603.1 596.1 587.6 C 592.1 580.1 585.7 576.8 580.2 575.5 z" stroke-linecap="round" />
</g>
		<g transform="matrix(1 0 0 1 238.75392685826114 -95.04304897670477)"  >
<path style="stroke: none; stroke-width: 1; stroke-dasharray: none; stroke-linecap: butt; stroke-dashoffset: 0; stroke-linejoin: miter; stroke-miterlimit: 4; fill: rgb(241,29,124); fill-rule: nonzero; opacity: 1;"  paint-order="stroke"  transform=" translate(-736.7539268582611, -266.9069510232953)" d="M 703.8 294.4 C 712.4 297.9 723.9 299.7 736.5 293.7 C 762.6 281.3 783.5 240 783.5 240 C 783.5 240 738.4 230 712.2 242.4 C 699.6 248.4 693.7 258.4 691 267.3 C 687.6 278.3 693.2 290.1 703.8 294.4 z" stroke-linecap="round" />
</g>
		<g transform="matrix(1 0 0 1 110.64843943682854 -41.19650562883851)"  >
<path style="stroke: none; stroke-width: 1; stroke-dasharray: none; stroke-linecap: butt; stroke-dashoffset: 0; stroke-linejoin: miter; stroke-miterlimit: 4; fill: rgb(241,29,124); fill-rule: nonzero; opacity: 1;"  paint-order="stroke"  transform=" translate(-608.6484394368285, -320.75349437116154)" d="M 577 348.3 C 579.9 359.40000000000003 590.8 366.5 602.1 364.6 C 611.2 363.1 622 358.5 629.5 346.90000000000003 C 645.2 322.6 641.3 276.6 641.3 276.6 C 641.3 276.6 597.7 291.7 582 316 C 574.4 327.7 574.7 339.3 577 348.3 z" stroke-linecap="round" />
</g>
		<g transform="matrix(1 0 0 1 124.34404464503245 -171.58804535140413)"  >
<path style="stroke: none; stroke-width: 1; stroke-dasharray: none; stroke-linecap: butt; stroke-dashoffset: 0; stroke-linejoin: miter; stroke-miterlimit: 4; fill: rgb(241,29,124); fill-rule: nonzero; opacity: 1;"  paint-order="stroke"  transform=" translate(-622.3440446450325, -190.3619546485959)" d="M 622.8 236.3 C 631.5999999999999 233.4 641.5 227.3 647.1999999999999 214.60000000000002 C 659.0999999999999 188.20000000000002 648.1999999999999 143.3 648.1999999999999 143.3 C 648.1999999999999 143.3 607.3 164.9 595.4999999999999 191.3 C 589.7999999999998 204 591.7999999999998 215.5 595.3999999999999 224 C 600 234.6 611.9 239.9 622.8 236.3 z" stroke-linecap="round" />
</g>
		<g transform="matrix(1 0 0 1 56.01187525814407 -74.1278308565108)"  >
<path style="stroke: none; stroke-width: 1; stroke-dasharray: none; stroke-linecap: butt; stroke-dashoffset: 0; stroke-linejoin: miter; stroke-miterlimit: 4; fill: rgb(241,29,124); fill-rule: nonzero; opacity: 1;"  paint-order="stroke"  transform=" translate(-554.0118752581441, -287.82216914348925)" d="M 570 301.9 C 576 285.29999999999995 567.3 258.4 567.3 258.4 C 567.3 258.4 543.4 273.5 537.4 290.09999999999997 C 534.5 298.09999999999997 536.3 304.99999999999994 538.9 309.99999999999994 C 542.1 316.19999999999993 549.6 318.8999999999999 556.1 316.19999999999993 C 561.3 314.1 567.1 309.9 570 301.9 z" stroke-linecap="round" />
</g>
		<g transform="matrix(1 0 0 1 -134.10000000000002 196.96263397167866)"  >
<path style="stroke: none; stroke-width: 1; stroke-dasharray: none; stroke-linecap: butt; stroke-dashoffset: 0; stroke-linejoin: miter; stroke-miterlimit: 4; fill: rgb(241,29,124); fill-rule: nonzero; opacity: 1;"  paint-order="stroke"  transform=" translate(-363.9, -558.9126339716787)" d="M 383.8 521.3 C 374.6 520.5 363 522.1999999999999 352.8 531.5999999999999 C 331.5 551.0999999999999 323.7 596.6999999999999 323.7 596.6999999999999 C 323.7 596.6999999999999 369.8 592.9999999999999 391.1 573.4 C 401.40000000000003 564 404 552.6999999999999 404.1 543.4 C 404 531.9 395.2 522.3 383.8 521.3 z" stroke-linecap="round" />
</g>
		<g transform="matrix(1 0 0 1 -223.1145406258613 118.7940495588087)"  >
<path style="stroke: none; stroke-width: 1; stroke-dasharray: none; stroke-linecap: butt; stroke-dashoffset: 0; stroke-linejoin: miter; stroke-miterlimit: 4; fill: rgb(241,29,124); fill-rule: nonzero; opacity: 1;"  paint-order="stroke"  transform=" translate(-274.8854593741387, -480.74404955880874)" d="M 320 478.1 C 322.8 467 316.6 455.5 305.8 451.70000000000005 C 297.1 448.70000000000005 285.5 447.50000000000006 273.2 454.1 C 247.7 467.8 229.1 510.1 229.1 510.1 C 229.1 510.1 274.7 517.7 300.2 504 C 312.3 497.4 317.7 487.1 320 478.1 z" stroke-linecap="round" />
</g>
		<g transform="matrix(1 0 0 1 -252.89840744862965 16.298364816445996)"  >
<path style="stroke: none; stroke-width: 1; stroke-dasharray: none; stroke-linecap: butt; stroke-dashoffset: 0; stroke-linejoin: miter; stroke-miterlimit: 4; fill: rgb(241,29,124); fill-rule: nonzero; opacity: 1;"  paint-order="stroke"  transform=" translate(-245.10159255137035, -378.24836481644604)" d="M 286.3 398.3 C 295.40000000000003 391.3 297.7 378.5 291.6 368.8 C 286.6 361 278.3 352.8 264.6 350.40000000000003 C 236.10000000000002 345.3 195.20000000000002 366.8 195.20000000000002 366.8 C 195.20000000000002 366.8 226.20000000000002 401.1 254.60000000000002 406.2 C 268.3 408.7 279 403.9 286.3 398.3 z" stroke-linecap="round" />
</g>
		<g transform="matrix(1 0 0 1 -249.66170212765957 -38.801020948237806)"  >
<path style="stroke: none; stroke-width: 1; stroke-dasharray: none; stroke-linecap: butt; stroke-dashoffset: 0; stroke-linejoin: miter; stroke-miterlimit: 4; fill: rgb(241,29,124); fill-rule: nonzero; opacity: 1;"  paint-order="stroke"  transform=" translate(-248.33829787234043, -323.14897905176224)" d="M 257.7 305.8 C 240 305.5 217.5 322.5 217.5 322.5 C 217.5 322.5 239.5 340.2 257.2 340.5 C 265.7 340.6 271.59999999999997 336.7 275.5 332.6 C 280.3 327.5 280.4 319.5 275.8 314.3 C 272 310.1 266.2 306 257.7 305.8 z" stroke-linecap="round" />
</g>
		<g transform="matrix(1 0 0 1 -171.58195858443332 -122.72392612525249)"  >
<path style="stroke: none; stroke-width: 1; stroke-dasharray: none; stroke-linecap: butt; stroke-dashoffset: 0; stroke-linejoin: miter; stroke-miterlimit: 4; fill: rgb(241,29,124); fill-rule: nonzero; opacity: 1;"  paint-order="stroke"  transform=" translate(-326.4180414155667, -239.22607387474756)" d="M 328.7 266.6 C 335.5 268.20000000000005 342.5 264.20000000000005 344.59999999999997 257.6 C 346.29999999999995 252.20000000000002 346.9 245.10000000000002 342.7 237.70000000000002 C 334 222.3 307.9 211.50000000000003 307.9 211.50000000000003 C 307.9 211.50000000000003 303.79999999999995 239.40000000000003 312.59999999999997 254.8 C 316.8 262.2 323.2 265.4 328.7 266.6 z" stroke-linecap="round" />
</g>
		<g transform="matrix(1 0 0 1 -181.8 -21.461130804796596)"  >
<path style="stroke: none; stroke-width: 1; stroke-dasharray: none; stroke-linecap: butt; stroke-dashoffset: 0; stroke-linejoin: miter; stroke-miterlimit: 4; fill: rgb(241,29,124); fill-rule: nonzero; opacity: 1;"  paint-order="stroke"  transform=" translate(-316.2, -340.48886919520345)" d="M 291.8 317.3 C 291.8 317.3 296.40000000000003 345.2 309.3 357.2 C 315.5 363 322.6 364 328.2 363.59999999999997 C 335.2 362.99999999999994 340.59999999999997 357.2 340.59999999999997 350.2 C 340.59999999999997 344.59999999999997 338.99999999999994 337.59999999999997 332.79999999999995 331.8 C 320 319.7 291.8 317.3 291.8 317.3 z" stroke-linecap="round" />
</g>
		<g transform="matrix(1 0 0 1 -66.57724404462363 -193.27080058901134)"  >
<path style="stroke: none; stroke-width: 1; stroke-dasharray: none; stroke-linecap: butt; stroke-dashoffset: 0; stroke-linejoin: miter; stroke-miterlimit: 4; fill: rgb(241,29,124); fill-rule: nonzero; opacity: 1;"  paint-order="stroke"  transform=" translate(-431.4227559553764, -168.6791994109887)" d="M 425.8 197.1 C 431.7 200.79999999999998 439.6 199.4 443.8 193.79999999999998 C 447.2 189.29999999999998 450.1 182.79999999999998 448.5 174.39999999999998 C 445.3 156.99999999999997 424.2 138.2 424.2 138.2 C 424.2 138.2 411.2 163.29999999999998 414.4 180.6 C 416.1 189 421.1 194.1 425.8 197.1 z" stroke-linecap="round" />
</g>
		<g transform="matrix(1 0 0 1 -249.60624698479958 71.09214634970346)"  >
<path style="stroke: none; stroke-width: 1; stroke-dasharray: none; stroke-linecap: butt; stroke-dashoffset: 0; stroke-linejoin: miter; stroke-miterlimit: 4; fill: rgb(241,29,124); fill-rule: nonzero; opacity: 1;"  paint-order="stroke"  transform=" translate(-248.39375301520042, -433.0421463497035)" d="M 260.9 449.9 C 269.2 448 274 442.79999999999995 276.9 437.9 C 280.4 431.79999999999995 278.59999999999997 424 272.9 420 C 268.29999999999995 416.8 261.59999999999997 414.2 253.29999999999998 416 C 236.1 419.9 218.09999999999997 441.7 218.09999999999997 441.7 C 218.09999999999997 441.7 243.6 453.8 260.9 449.9 z" stroke-linecap="round" />
</g>
		<g transform="matrix(1 0 0 1 -187.89999999999998 173.34614740867517)"  >
<path style="stroke: none; stroke-width: 1; stroke-dasharray: none; stroke-linecap: butt; stroke-dashoffset: 0; stroke-linejoin: miter; stroke-miterlimit: 4; fill: rgb(241,29,124); fill-rule: nonzero; opacity: 1;"  paint-order="stroke"  transform=" translate(-310.1, -535.2961474086752)" d="M 334.6 525.8 C 334.6 518.8 329.20000000000005 512.9 322.20000000000005 512.3 C 316.6 511.79999999999995 309.50000000000006 512.9 303.30000000000007 518.5999999999999 C 290.30000000000007 530.5999999999999 285.6000000000001 558.3999999999999 285.6000000000001 558.3999999999999 C 285.6000000000001 558.3999999999999 313.7000000000001 556.0999999999999 326.7000000000001 544.0999999999999 C 333 538.4 334.6 531.5 334.6 525.8 z" stroke-linecap="round" />
</g>
		<g transform="matrix(1 0 0 1 -83.99326529195116 241.09766424463578)"  >
<path style="stroke: none; stroke-width: 1; stroke-dasharray: none; stroke-linecap: butt; stroke-dashoffset: 0; stroke-linejoin: miter; stroke-miterlimit: 4; fill: rgb(241,29,124); fill-rule: nonzero; opacity: 1;"  paint-order="stroke"  transform=" translate(-414.00673470804884, -603.0476642446358)" d="M 415.7 575.5 C 410.2 576.9 403.9 580.1 399.8 587.6 C 391.40000000000003 603.1 396 631 396 631 C 396 631 421.9 619.7 430.3 604.1 C 434.40000000000003 596.6 433.6 589.5 431.8 584.2 C 429.5 577.6 422.5 573.8 415.7 575.5 z" stroke-linecap="round" />
</g>
		<g transform="matrix(1 0 0 1 -238.75392685826114 -94.9430489767048)"  >
<path style="stroke: none; stroke-width: 1; stroke-dasharray: none; stroke-linecap: butt; stroke-dashoffset: 0; stroke-linejoin: miter; stroke-miterlimit: 4; fill: rgb(241,29,124); fill-rule: nonzero; opacity: 1;"  paint-order="stroke"  transform=" translate(-259.24607314173886, -267.00695102329524)" d="M 259.5 293.8 C 272.1 299.8 283.6 298 292.2 294.5 C 302.8 290.2 308.4 278.4 305 267.4 C 302.3 258.59999999999997 296.4 248.49999999999997 283.8 242.49999999999997 C 257.7 230.09999999999997 212.5 240.09999999999997 212.5 240.09999999999997 C 212.5 240.09999999999997 233.3 281.4 259.5 293.8 z" stroke-linecap="round" />
</g>
		<g transform="matrix(1 0 0 1 -110.79662272939436 -41.3465056288386)"  >
<path style="stroke: none; stroke-width: 1; stroke-dasharray: none; stroke-linecap: butt; stroke-dashoffset: 0; stroke-linejoin: miter; stroke-miterlimit: 4; fill: rgb(241,29,124); fill-rule: nonzero; opacity: 1;"  paint-order="stroke"  transform=" translate(-387.20337727060564, -320.60349437116145)" d="M 366.4 346.8 C 374 358.5 384.7 363 393.79999999999995 364.5 C 405.09999999999997 366.4 416.09999999999997 359.3 418.9 348.2 C 421.2 339.2 421.5 327.59999999999997 413.9 315.9 C 398.2 291.59999999999997 354.5 276.4 354.5 276.4 C 354.5 276.4 350.6 322.6 366.4 346.8 z" stroke-linecap="round" />
</g>
		<g transform="matrix(1 0 0 1 -124.52361334867783 -171.59328810926345)"  >
<path style="stroke: none; stroke-width: 1; stroke-dasharray: none; stroke-linecap: butt; stroke-dashoffset: 0; stroke-linejoin: miter; stroke-miterlimit: 4; fill: rgb(241,29,124); fill-rule: nonzero; opacity: 1;"  paint-order="stroke"  transform=" translate(-373.4763866513222, -190.3567118907366)" d="M 373.1 236.3 C 384 239.9 395.90000000000003 234.5 400.40000000000003 224 C 404.00000000000006 215.5 406.1 204 400.3 191.3 C 388.40000000000003 164.9 347.6 143.3 347.6 143.3 C 347.6 143.3 336.70000000000005 188.20000000000002 348.6 214.60000000000002 C 354.4 227.4 364.4 233.4 373.1 236.3 z" stroke-linecap="round" />
</g>
		<g transform="matrix(1 0 0 1 -56.111875258144096 -74.12783085651074)"  >
<path style="stroke: none; stroke-width: 1; stroke-dasharray: none; stroke-linecap: butt; stroke-dashoffset: 0; stroke-linejoin: miter; stroke-miterlimit: 4; fill: rgb(241,29,124); fill-rule: nonzero; opacity: 1;"  paint-order="stroke"  transform=" translate(-441.8881247418559, -287.8221691434893)" d="M 428.6 258.4 C 428.6 258.4 419.90000000000003 285.29999999999995 425.90000000000003 301.9 C 428.8 309.9 434.6 314.09999999999997 439.8 316.2 C 446.3 318.9 453.8 316.2 457 310 C 459.6 305 461.4 298.1 458.5 290.1 C 452.5 273.5 428.6 258.4 428.6 258.4 z" stroke-linecap="round" />
</g>
</g>
</g>
		<g transform="matrix(0.2687479402025406 0 0 0.2687479402025406 -0.14781136711138743 32.196003236264346)"  >
<g style=""  paint-order="stroke"   >
		<g transform="matrix(1 0 0 1 0.5499999999999545 -187.20000000000005)"  >
<path style="stroke: none; stroke-width: 1; stroke-dasharray: none; stroke-linecap: butt; stroke-dashoffset: 0; stroke-linejoin: miter; stroke-miterlimit: 4; fill: rgb(247,119,178); fill-rule: nonzero; opacity: 1;"  paint-order="stroke"  transform=" translate(-498, -392.5)" d="M 498 452.5 C 531.1 452.5 558 425.6 558 392.5 C 558 359.4 531.1 332.5 498 332.5 C 464.9 332.5 438 359.4 438 392.5 C 438 425.6 464.9 452.5 498 452.5 z M 498 354.5 C 518.9 354.5 536 371.5 536 392.5 C 536 413.4 519 430.5 498 430.5 C 477 430.5 460 413.5 460 392.5 C 460 371.6 477 354.5 498 354.5 z" stroke-linecap="round" />
</g>
		<g transform="matrix(1 0 0 1 -105.20000000000005 17.449999999999932)"  >
<path style="stroke: none; stroke-width: 1; stroke-dasharray: none; stroke-linecap: butt; stroke-dashoffset: 0; stroke-linejoin: miter; stroke-miterlimit: 4; fill: rgb(247,119,178); fill-rule: nonzero; opacity: 1;"  paint-order="stroke"  transform=" translate(-392.25, -597.15)" d="M 428.5 724.3 C 453.6 697.4 467.5 662.1999999999999 467.5 625.3 L 467.5 584.6999999999999 C 467.5 547.1999999999999 453.3 511.5999999999999 427.4 484.3999999999999 C 383 437.7999999999999 329.9 408.19999999999993 327.7 406.8999999999999 L 317 426.2 C 317.5 426.5 369.3 455.4 411.4 499.6 C 433.4 522.6 445.4 552.8000000000001 445.4 584.7 L 445.4 625.3000000000001 C 445.4 656.7 433.7 686.5000000000001 412.29999999999995 709.3000000000001 C 386.29999999999995 737.2 354.99999999999994 756.3000000000001 319.29999999999995 766.2 L 325.09999999999997 787.4000000000001 C 364.9 776.4 399.7 755.2 428.5 724.3 z" stroke-linecap="round" />
</g>
		<g transform="matrix(1 0 0 1 -0.2500000000001137 18.54999999999984)"  >
<path style="stroke: none; stroke-width: 1; stroke-dasharray: none; stroke-linecap: butt; stroke-dashoffset: 0; stroke-linejoin: miter; stroke-miterlimit: 4; fill: rgb(247,119,178); fill-rule: nonzero; opacity: 1;"  paint-order="stroke"  transform=" translate(-497.19999999999993, -598.2499999999999)" d="M 511 676.9 L 508.5 671.1999999999999 L 508.5 583.0999999999999 C 508.5 540.6999999999999 524.6 500.4999999999999 553.9 469.7999999999999 C 600.3 421.0999999999999 655.8 390.0999999999999 658.1 388.7999999999999 L 647.4 369.5999999999999 C 644.9 370.9999999999999 586.6 403.4999999999999 537.9 454.5999999999999 C 519.8 473.5999999999999 506.09999999999997 495.7999999999999 497.4 519.8999999999999 C 488.7 495.79999999999984 475.09999999999997 473.59999999999985 456.9 454.59999999999985 C 408.2 403.49999999999983 349.9 370.89999999999986 347.4 369.59999999999985 L 336.7 388.79999999999984 C 339 390.09999999999985 394.5 421.09999999999985 440.9 469.79999999999984 C 470.09999999999997 500.49999999999983 486.2 540.6999999999998 486.29999999999995 583.0999999999998 L 486.29999999999995 671.1999999999998 L 483.79999999999995 676.8999999999999 C 482.09999999999997 680.8999999999999 439.9 775.3999999999999 330.09999999999997 805.6999999999998 L 335.9 826.8999999999999 C 431.79999999999995 800.4999999999999 480.59999999999997 728.6999999999998 497.2 698.7999999999998 C 513.9 728.6999999999998 562.6 800.3999999999999 658.5 826.8999999999999 L 664.3 805.6999999999998 C 554.8 775.4 512.7 680.9 511 676.9 z" stroke-linecap="round" />
</g>
		<g transform="matrix(1 0 0 1 105.25 17.5)"  >
<path style="stroke: none; stroke-width: 1; stroke-dasharray: none; stroke-linecap: butt; stroke-dashoffset: 0; stroke-linejoin: miter; stroke-miterlimit: 4; fill: rgb(247,119,178); fill-rule: nonzero; opacity: 1;"  paint-order="stroke"  transform=" translate(-602.7, -597.2)" d="M 583.5 499.5 C 625.5 455.5 677.2 426.5 677.9 426.1 C 677.9 426.1 677.9 426.1 677.9 426.1 L 672.6 416.5 L 667.3000000000001 406.9 C 665.1 408.09999999999997 612.0000000000001 437.79999999999995 567.6 484.4 C 541.7 511.5 527.5 547.1 527.5 584.6999999999999 L 527.5 625.4 C 527.5 661.9 540.9 696.6 565.1 723 C 594.2 754.7 629.4 776.4 669.7 787.5 L 675.5 766.3 C 639.2 756.3 607.5 736.6999999999999 581.3 708.0999999999999 C 560.8 685.6999999999999 549.4 656.3 549.4 625.3999999999999 L 549.4 584.6999999999998 C 549.5 552.8 561.6 522.6 583.5 499.5 z" stroke-linecap="round" />
</g>
		<g transform="matrix(1 0 0 1 0.14999999999992042 204.70000000000005)"  >
<path style="stroke: none; stroke-width: 1; stroke-dasharray: none; stroke-linecap: butt; stroke-dashoffset: 0; stroke-linejoin: miter; stroke-miterlimit: 4; fill: rgb(247,119,178); fill-rule: nonzero; opacity: 1;"  paint-order="stroke"  transform=" translate(-497.59999999999997, -784.4000000000001)" d="M 516.3 765.2 C 512.8 761.2 509.29999999999995 757 506.09999999999997 752.9000000000001 L 497.49999999999994 741.9000000000001 L 488.8999999999999 752.9000000000001 C 485.5999999999999 757.1000000000001 482.19999999999993 761.2 478.69999999999993 765.2 C 456.69999999999993 790.3000000000001 431.0999999999999 811.1 402.79999999999995 826.9000000000001 L 443.59999999999997 826.9000000000001 C 462.29999999999995 813.3000000000001 479.7 797.5000000000001 495.29999999999995 779.7 C 496.09999999999997 778.8000000000001 496.79999999999995 777.9000000000001 497.59999999999997 777 C 498.4 777.9 499.09999999999997 778.8 499.9 779.7 C 515.5 797.5 532.8 813.3000000000001 551.6 826.9000000000001 L 592.4 826.9000000000001 C 564 811.1 538.3 790.3 516.3 765.2 z" stroke-linecap="round" />
</g>
</g>
</g>
</g>
</g>
</svg>