<svg width="1007" height="245" viewBox="0 0 1007 245" fill="none" xmlns="http://www.w3.org/2000/svg">
<path d="M227.557 194.554V138.072H245.078C250.367 138.072 254.587 139.2 257.738 141.454C260.889 143.721 262.464 147.384 262.464 152.443C262.464 158.104 260.114 162.145 255.413 164.565C263.444 165.987 267.459 170.732 267.459 178.801C267.459 183.553 265.82 187.363 262.541 190.232C259.249 193.114 254.728 194.554 248.978 194.554H227.557ZM240.428 148.005V160.185H241.447C244.328 160.185 246.474 159.685 247.883 158.686C249.304 157.675 250.015 156.029 250.015 153.749C250.015 149.92 247.159 148.005 241.447 148.005H240.428ZM240.428 171.27V184.622H244.463C250.764 184.622 253.915 182.522 253.915 178.321C253.915 175.81 253.127 174.011 251.552 172.922C249.977 171.821 247.614 171.27 244.463 171.27H240.428ZM289.648 138.072H302.52V183.258H321.962V194.554H289.648V138.072ZM344.152 166.275C344.152 158.104 346.937 151.188 352.509 145.527C358.067 139.866 364.772 137.035 372.623 137.035C380.525 137.035 387.237 139.853 392.757 145.488C398.277 151.136 401.037 158.065 401.037 166.275C401.037 174.536 398.322 181.484 392.891 187.12C387.461 192.755 380.705 195.573 372.623 195.573C364.362 195.573 357.555 192.781 352.201 187.196C346.835 181.599 344.152 174.626 344.152 166.275ZM358.042 166.275C358.042 169.246 358.503 171.949 359.425 174.382C360.334 176.829 361.929 178.897 364.208 180.588C366.488 182.278 369.293 183.124 372.623 183.124C377.426 183.124 381.044 181.478 383.478 178.186C385.924 174.907 387.147 170.937 387.147 166.275C387.147 161.664 385.905 157.707 383.42 154.402C380.922 151.085 377.323 149.427 372.623 149.427C367.974 149.427 364.381 151.085 361.845 154.402C359.309 157.707 358.042 161.664 358.042 166.275ZM446.568 137.035C449.629 137.035 452.62 137.483 455.54 138.38C458.46 139.264 460.631 140.141 462.053 141.012L464.108 142.376L458.902 152.654C458.492 152.385 457.922 152.033 457.192 151.597C456.462 151.162 455.092 150.579 453.081 149.849C451.07 149.119 449.2 148.754 447.471 148.754C445.32 148.754 443.661 149.209 442.495 150.118C441.33 151.027 440.747 152.257 440.747 153.807C440.747 154.588 441.023 155.312 441.573 155.978C442.124 156.631 443.059 157.335 444.378 158.091C445.71 158.847 446.876 159.455 447.875 159.916C448.874 160.364 450.423 161.049 452.524 161.972C456.187 163.521 459.306 165.628 461.88 168.292C464.454 170.969 465.741 173.992 465.741 177.36C465.741 180.613 465.159 183.444 463.993 185.852C462.828 188.272 461.233 190.168 459.209 191.538C457.173 192.909 454.925 193.927 452.466 194.593C449.994 195.246 447.324 195.573 444.455 195.573C441.983 195.573 439.562 195.323 437.193 194.823C434.824 194.324 432.838 193.696 431.237 192.941C429.637 192.185 428.202 191.442 426.934 190.712C425.653 189.982 424.712 189.367 424.11 188.868L423.226 188.119L429.662 177.302C430.213 177.764 430.969 178.346 431.929 179.051C432.89 179.755 434.587 180.703 437.02 181.894C439.466 183.072 441.625 183.661 443.494 183.661C448.925 183.661 451.64 181.817 451.64 178.129C451.64 177.347 451.448 176.624 451.064 175.958C450.68 175.304 449.994 174.645 449.008 173.979C448.022 173.313 447.151 172.788 446.395 172.404C445.653 172.019 444.423 171.424 442.707 170.617C440.991 169.823 439.723 169.221 438.903 168.811C435.483 167.12 432.838 165.007 430.969 162.471C429.099 159.948 428.164 157.22 428.164 154.287C428.164 149.228 430.034 145.091 433.773 141.876C437.513 138.649 441.778 137.035 446.568 137.035ZM509.909 137.035C512.97 137.035 515.96 137.483 518.881 138.38C521.801 139.264 523.965 140.141 525.374 141.012L527.43 142.376L522.223 152.654C521.813 152.385 521.244 152.033 520.514 151.597C519.783 151.162 518.419 150.579 516.421 149.849C514.411 149.119 512.534 148.754 510.792 148.754C508.654 148.754 507.001 149.209 505.836 150.118C504.67 151.027 504.088 152.257 504.088 153.807C504.088 154.588 504.363 155.312 504.914 155.978C505.464 156.631 506.399 157.335 507.719 158.091C509.038 158.847 510.203 159.455 511.215 159.916C512.214 160.364 513.764 161.049 515.864 161.972C519.515 163.521 522.627 165.628 525.201 168.292C527.788 170.969 529.082 173.992 529.082 177.36C529.082 180.613 528.499 183.444 527.334 185.852C526.168 188.272 524.567 190.168 522.531 191.538C520.507 192.909 518.259 193.927 515.787 194.593C513.328 195.246 510.658 195.573 507.776 195.573C505.317 195.573 502.903 195.323 500.534 194.823C498.151 194.324 496.166 193.696 494.578 192.941C492.977 192.185 491.536 191.442 490.255 190.712C488.975 189.982 488.04 189.367 487.45 188.868L486.567 188.119L493.003 177.302C493.541 177.764 494.29 178.346 495.25 179.051C496.211 179.755 497.914 180.703 500.361 181.894C502.794 183.072 504.952 183.661 506.835 183.661C512.265 183.661 514.981 181.817 514.981 178.129C514.981 177.347 514.782 176.624 514.385 175.958C514.001 175.304 513.316 174.645 512.329 173.979C511.356 173.313 510.491 172.788 509.736 172.404C508.98 172.019 507.751 171.424 506.047 170.617C504.331 169.823 503.063 169.221 502.243 168.811C498.811 167.12 496.16 165.007 494.29 162.471C492.42 159.948 491.485 157.22 491.485 154.287C491.485 149.228 493.355 145.091 497.095 141.876C500.847 138.649 505.119 137.035 509.909 137.035ZM551.271 166.275C551.271 158.104 554.05 151.188 559.609 145.527C565.18 139.866 571.892 137.035 579.743 137.035C587.645 137.035 594.356 139.853 599.876 145.488C605.396 151.136 608.157 158.065 608.157 166.275C608.157 174.536 605.441 181.484 600.011 187.12C594.58 192.755 587.824 195.573 579.743 195.573C571.482 195.573 564.668 192.781 559.302 187.196C553.948 181.599 551.271 174.626 551.271 166.275ZM565.161 166.275C565.161 169.246 565.616 171.949 566.525 174.382C567.447 176.829 569.048 178.897 571.328 180.588C573.608 182.278 576.413 183.124 579.743 183.124C584.533 183.124 588.151 181.478 590.597 178.186C593.043 174.907 594.267 170.937 594.267 166.275C594.267 161.664 593.018 157.707 590.52 154.402C588.036 151.085 584.443 149.427 579.743 149.427C575.093 149.427 571.501 151.085 568.965 154.402C566.429 157.707 565.161 161.664 565.161 166.275ZM692.918 194.554H680.046L677.376 161.069H677.03L665.465 194.209H657.799L646.234 161.069H645.888L643.218 194.554H630.346L635.418 138.072H649.096L661.622 170.655L674.167 138.072H687.846L692.918 194.554ZM787.4 182.912C789.373 182.912 791.281 182.618 793.125 182.028C794.97 181.427 796.327 180.857 797.198 180.319L798.504 179.416L803.98 190.386C803.788 190.514 803.538 190.693 803.23 190.923C802.91 191.154 802.168 191.577 801.002 192.191C799.837 192.806 798.588 193.344 797.256 193.805C795.937 194.253 794.207 194.663 792.069 195.035C789.917 195.393 787.701 195.573 785.421 195.573C780.17 195.573 775.194 194.285 770.494 191.711C765.794 189.137 762.003 185.589 759.121 181.068C756.252 176.547 754.817 171.661 754.817 166.41C754.817 162.439 755.663 158.629 757.353 154.979C759.044 151.328 761.292 148.203 764.097 145.603C766.901 143.003 770.174 140.929 773.914 139.379C777.654 137.816 781.489 137.035 785.421 137.035C789.072 137.035 792.44 137.471 795.527 138.341C798.601 139.212 800.778 140.077 802.059 140.935L803.98 142.241L798.504 153.192C798.184 152.923 797.704 152.596 797.064 152.212C796.423 151.815 795.142 151.303 793.221 150.675C791.313 150.035 789.373 149.715 787.4 149.715C784.301 149.715 781.521 150.214 779.062 151.213C776.591 152.212 774.637 153.538 773.203 155.19C771.768 156.829 770.673 158.597 769.918 160.492C769.162 162.388 768.784 164.315 768.784 166.275C768.784 170.566 770.392 174.414 773.606 177.821C776.821 181.215 781.419 182.912 787.4 182.912ZM848.954 138.072H860.865L883.669 194.554H869.837L865.668 183.258H844.17L839.982 194.554H826.15L848.954 138.072ZM848.551 171.962H861.288L854.986 155.536H854.852L848.551 171.962ZM905.859 194.554V138.072H926.05C931.48 138.072 935.912 139.52 939.344 142.414C942.764 145.309 944.474 149.452 944.474 154.844C944.474 158.994 943.436 162.471 941.362 165.276C939.274 168.094 936.456 170.073 932.908 171.212L952.351 194.554H935.982L918.73 172.231V194.554H905.859ZM918.73 148.331V163.124H920.229C921.42 163.124 922.425 163.105 923.245 163.067C924.065 163.015 925 162.855 926.05 162.586C927.1 162.305 927.945 161.914 928.586 161.415C929.226 160.915 929.777 160.185 930.238 159.224C930.686 158.264 930.91 157.098 930.91 155.728C930.91 154.357 930.686 153.198 930.238 152.251C929.777 151.29 929.226 150.554 928.586 150.041C927.945 149.542 927.1 149.158 926.05 148.889C925 148.62 924.065 148.46 923.245 148.408C922.425 148.357 921.42 148.331 920.229 148.331H918.73ZM974.521 138.072H1006.83V149.369H987.392V160.588H1006.03V171.885H987.392V183.258H1006.83V194.554H974.521V138.072Z" fill="#F11D7C"/>
<path d="M91.7512 22.3806C91.7512 27.0011 93.9451 30.2255 96.2055 32.2864C99.0309 34.8792 103.352 34.8792 106.178 32.2864C108.438 30.1922 110.632 27.0011 110.632 22.3806C110.632 12.774 101.192 0.641022 101.192 0.641022C101.192 0.641022 91.7512 12.7407 91.7512 22.3806Z" fill="#F11D7C"/>
<path d="M91.7512 60.6077C91.7512 65.2282 93.9451 68.4526 96.2055 70.5135C99.0309 73.1063 103.352 73.1063 106.178 70.5135C108.438 68.4193 110.632 65.2282 110.632 60.6077C110.632 51.0011 101.192 38.8681 101.192 38.8681C101.192 38.8681 91.7512 51.0011 91.7512 60.6077Z" fill="#F11D7C"/>
<path d="M149.457 146.469C146.034 143.344 142.211 142.779 139.153 143.045C135.363 143.378 132.438 146.569 132.438 150.391C132.438 153.45 133.336 157.239 136.759 160.364C143.84 166.846 159.164 168.109 159.164 168.109C159.164 168.109 156.571 152.951 149.457 146.469Z" fill="#F11D7C"/>
<path d="M175.917 120.707C171.829 118.513 167.973 118.912 165.081 119.91C161.491 121.173 159.43 124.995 160.361 128.685C161.125 131.677 162.887 135.101 166.975 137.295C175.452 141.849 190.61 139.322 190.61 139.322C190.61 139.322 184.394 125.261 175.917 120.707Z" fill="#F11D7C"/>
<path d="M178.776 86.2364C174.222 87.0342 171.463 89.76 169.801 92.3528C167.74 95.5771 168.504 99.832 171.563 102.159C174.022 104.02 177.546 105.616 182.1 104.785C191.574 103.09 201.845 91.688 201.845 91.688C201.845 91.688 188.25 84.5412 178.776 86.2364Z" fill="#F11D7C"/>
<path d="M175.053 74.2365C173.491 75.965 173.557 78.6243 175.153 80.3196C176.449 81.6825 178.41 82.9788 181.236 82.9456C187.119 82.8459 194.432 76.9622 194.432 76.9622C194.432 76.9622 186.92 71.3113 181.07 71.411C178.211 71.4775 176.283 72.8404 175.053 74.2365Z" fill="#F11D7C"/>
<path d="M152.15 55.3889C152.881 57.616 155.175 58.9124 157.435 58.3806C159.264 57.9484 161.391 56.918 162.787 54.4581C165.679 49.339 164.349 40.0648 164.349 40.0648C164.349 40.0648 155.674 43.6548 152.782 48.7739C151.385 51.2337 151.585 53.5939 152.15 55.3889Z" fill="#F11D7C"/>
<path d="M153.48 86.1367C153.48 88.4636 155.308 90.4248 157.602 90.591C159.463 90.7572 161.823 90.3916 163.884 88.4636C168.205 84.4747 169.701 75.2005 169.701 75.2005C169.701 75.2005 160.361 76.0315 156.039 80.0204C153.978 81.9484 153.446 84.2752 153.48 86.1367Z" fill="#F11D7C"/>
<path d="M125.158 35.2781C126.754 34.2808 128.416 32.5855 128.915 29.8266C129.978 24.0426 125.657 15.7324 125.657 15.7324C125.657 15.7324 118.643 21.9817 117.579 27.7656C117.081 30.5579 118.012 32.7185 119.142 34.2144C120.571 36.0426 123.197 36.508 125.158 35.2781Z" fill="#F11D7C"/>
<path d="M182.532 108.076C179.773 107.444 177.579 108.308 176.017 109.405C174.089 110.735 173.524 113.328 174.687 115.356C175.618 116.984 177.247 118.713 180.006 119.344C185.723 120.641 194.233 116.652 194.233 116.652C194.233 116.652 188.283 109.372 182.532 108.076Z" fill="#F11D7C"/>
<path d="M165.878 142.181C163.784 140.253 161.457 139.921 159.596 140.087C157.269 140.286 155.474 142.247 155.474 144.574C155.474 146.436 156.006 148.763 158.1 150.657C162.421 154.646 171.762 155.411 171.762 155.411C171.762 155.411 170.2 146.137 165.878 142.181Z" fill="#F11D7C"/>
<path d="M128.516 161.062C126.255 160.497 123.928 161.76 123.164 163.954C122.566 165.716 122.3 168.076 123.662 170.569C126.455 175.721 135.064 179.511 135.064 179.511C135.064 179.511 136.593 170.236 133.801 165.084C132.471 162.591 130.344 161.494 128.516 161.062Z" fill="#F11D7C"/>
<path d="M169.601 67.6215C172.46 68.785 176.283 69.3833 180.471 67.3888C189.147 63.267 196.095 49.5384 196.095 49.5384C196.095 49.5384 181.103 46.2144 172.394 50.3362C168.205 52.3307 166.244 55.6548 165.347 58.6132C164.216 62.2697 166.078 66.1922 169.601 67.6215Z" fill="#F11D7C"/>
<path d="M127.452 85.5384C128.416 89.2281 132.039 91.5882 135.795 90.9567C138.82 90.4581 142.41 88.929 144.903 85.073C150.122 76.9955 148.826 61.7046 148.826 61.7046C148.826 61.7046 134.333 66.724 129.114 74.8016C126.588 78.6908 126.687 82.5467 127.452 85.5384Z" fill="#F11D7C"/>
<path d="M142.676 48.3086C145.602 47.3446 148.892 45.3169 150.787 41.0953C154.743 32.3197 151.12 17.3945 151.12 17.3945C151.12 17.3945 137.524 24.5745 133.602 33.3501C131.707 37.5717 132.372 41.3944 133.568 44.2199C135.097 47.7435 139.053 49.5052 142.676 48.3086Z" fill="#F11D7C"/>
<path d="M125.125 70.1146C127.12 64.5966 124.228 55.6548 124.228 55.6548C124.228 55.6548 116.283 60.6742 114.289 66.1922C113.325 68.8514 113.923 71.1451 114.787 72.8071C115.851 74.8681 118.344 75.7656 120.505 74.8681C122.233 74.17 124.161 72.7739 125.125 70.1146Z" fill="#F11D7C"/>
<path d="M63.2304 143.045C60.1723 142.779 56.3163 143.344 52.9258 146.469C45.8454 152.951 43.2526 168.109 43.2526 168.109C43.2526 168.109 58.5767 166.879 65.657 160.364C69.0809 157.239 69.9451 153.483 69.9784 150.391C69.9451 146.569 67.0199 143.378 63.2304 143.045Z" fill="#F11D7C"/>
<path d="M42.0227 128.685C42.9535 124.995 40.8925 121.173 37.3025 119.91C34.4105 118.912 30.5546 118.513 26.466 120.707C17.9895 125.261 11.8067 139.322 11.8067 139.322C11.8067 139.322 26.9646 141.849 35.441 137.295C39.4632 135.101 41.2582 131.677 42.0227 128.685Z" fill="#F11D7C"/>
<path d="M30.8205 102.159C33.8455 99.832 34.61 95.5771 32.5823 92.3528C30.9203 89.76 28.1613 87.0342 23.6072 86.2364C14.1336 84.5412 0.538025 91.688 0.538025 91.688C0.538025 91.688 10.8427 103.09 20.2832 104.785C24.8372 105.616 28.3939 104.02 30.8205 102.159Z" fill="#F11D7C"/>
<path d="M21.3136 71.411C15.43 71.3113 7.95074 76.9622 7.95074 76.9622C7.95074 76.9622 15.2638 82.8459 21.1474 82.9456C23.9729 82.9788 25.9341 81.6825 27.2305 80.3196C28.8261 78.6243 28.8593 75.965 27.3302 74.2365C26.0671 72.8404 24.1391 71.4775 21.3136 71.411Z" fill="#F11D7C"/>
<path d="M44.9147 58.3805C47.1751 58.9124 49.5019 57.5828 50.2 55.3889C50.7651 53.5938 50.9645 51.2337 49.5684 48.7739C46.6765 43.6548 38.0006 40.0648 38.0006 40.0648C38.0006 40.0648 36.6377 49.339 39.5629 54.4581C40.959 56.9179 43.0864 57.9817 44.9147 58.3805Z" fill="#F11D7C"/>
<path d="M32.6488 75.2337C32.6488 75.2337 34.1779 84.5079 38.4659 88.4968C40.5269 90.4248 42.887 90.7572 44.7485 90.6243C47.0754 90.4248 48.8704 88.4968 48.8704 86.17C48.8704 84.3085 48.3385 81.9816 46.2776 80.0536C42.0227 76.0315 32.6488 75.2337 32.6488 75.2337Z" fill="#F11D7C"/>
<path d="M77.1916 35.2781C79.1529 36.508 81.7789 36.0426 83.175 34.1811C84.3052 32.6853 85.2692 30.5246 84.7373 27.7324C83.6736 21.9485 76.6598 15.6992 76.6598 15.6992C76.6598 15.6992 72.3385 24.0426 73.4022 29.7933C73.9673 32.5856 75.6293 34.2808 77.1916 35.2781Z" fill="#F11D7C"/>
<path d="M22.3773 119.311C25.1363 118.68 26.7319 116.951 27.6959 115.322C28.8593 113.295 28.261 110.702 26.3662 109.372C24.8372 108.308 22.61 107.444 19.851 108.043C14.1336 109.339 8.15021 116.585 8.15021 116.585C8.15021 116.585 16.6266 120.608 22.3773 119.311Z" fill="#F11D7C"/>
<path d="M46.8759 144.541C46.8759 142.214 45.0809 140.253 42.754 140.054C40.8925 139.887 38.5324 140.253 36.4715 142.148C32.1501 146.137 30.5878 155.378 30.5878 155.378C30.5878 155.378 39.9285 154.613 44.2499 150.624C46.344 148.729 46.8759 146.436 46.8759 144.541Z" fill="#F11D7C"/>
<path d="M73.8343 161.062C72.0061 161.527 69.9119 162.591 68.549 165.084C65.7568 170.236 67.2858 179.511 67.2858 179.511C67.2858 179.511 75.8952 175.754 78.6875 170.569C80.0504 168.076 79.7844 165.716 79.1861 163.954C78.4216 161.76 76.0947 160.497 73.8343 161.062Z" fill="#F11D7C"/>
<path d="M21.9119 67.4221C26.1003 69.4166 29.923 68.8182 32.7817 67.6548C36.3053 66.2254 38.1668 62.303 37.0366 58.6465C36.1391 55.7213 34.1778 52.3639 29.9895 50.3695C21.3136 46.2476 6.2887 49.5717 6.2887 49.5717C6.2887 49.5717 13.2028 63.3002 21.9119 67.4221Z" fill="#F11D7C"/>
<path d="M57.4465 85.0398C59.9728 88.929 63.5296 90.4248 66.5545 90.9234C70.3108 91.555 73.9673 89.1949 74.898 85.5052C75.6626 82.5135 75.7623 78.6575 73.236 74.7683C68.0171 66.6908 53.4909 61.6382 53.4909 61.6382C53.4909 61.6382 52.1945 76.9955 57.4465 85.0398Z" fill="#F11D7C"/>
<path d="M59.6737 48.3085C63.2969 49.5052 67.2526 47.7102 68.7484 44.2199C69.9451 41.3944 70.6432 37.5717 68.7152 33.3501C64.7595 24.5745 51.1972 17.3944 51.1972 17.3944C51.1972 17.3944 47.574 32.3196 51.5296 41.0952C53.4576 45.3501 56.7817 47.3445 59.6737 48.3085Z" fill="#F11D7C"/>
<path d="M78.1224 55.6548C78.1224 55.6548 75.2304 64.5966 77.2249 70.1146C78.1889 72.7739 80.1168 74.17 81.8454 74.8681C84.006 75.7656 86.4991 74.8681 87.5628 72.8071C88.4271 71.1451 89.0254 68.8514 88.0614 66.1922C86.067 60.6742 78.1224 55.6548 78.1224 55.6548Z" fill="#F11D7C"/>
<path d="M101.192 120.175C112.194 120.175 121.136 111.234 121.136 100.231C121.136 89.2282 112.194 80.2863 101.192 80.2863C90.1889 80.2863 81.247 89.2282 81.247 100.231C81.247 111.234 90.1889 120.175 101.192 120.175ZM101.192 87.5994C108.139 87.5994 113.823 93.2503 113.823 100.231C113.823 107.178 108.172 112.862 101.192 112.862C94.211 112.862 88.56 107.212 88.56 100.231C88.56 93.2836 94.211 87.5994 101.192 87.5994Z" fill="#F777B2"/>
<path d="M78.0891 210.524C86.4326 201.583 91.0531 189.882 91.0531 177.616V164.12C91.0531 151.655 86.3329 139.821 77.7235 130.779C62.9645 115.289 45.3136 105.45 44.5823 105.018L41.0255 111.433C41.1917 111.533 58.4105 121.139 72.4049 135.832C79.7179 143.477 83.7069 153.516 83.7069 164.12V177.616C83.7069 188.054 79.8177 197.959 72.7041 205.538C64.0615 214.812 53.657 221.161 41.79 224.452L43.718 231.499C56.9479 227.843 68.5157 220.796 78.0891 210.524Z" fill="#F777B2"/>
<path d="M105.513 194.768L104.682 192.873V163.588C104.682 149.494 110.034 136.131 119.773 125.926C135.197 109.738 153.646 99.4331 154.41 99.001L150.854 92.6187C150.023 93.0841 130.643 103.887 114.455 120.874C108.438 127.189 103.884 134.569 100.992 142.58C98.1002 134.569 93.5794 127.189 87.5296 120.874C71.3412 103.887 51.9618 93.0509 51.1307 92.6187L47.574 99.001C48.3385 99.4331 66.7872 109.738 82.211 125.926C91.9174 136.131 97.2692 149.494 97.3024 163.588V192.873L96.4714 194.768C95.9063 196.098 81.8786 227.51 45.3801 237.583L47.308 244.63C79.1861 235.854 95.4077 211.987 100.926 202.048C106.477 211.987 122.665 235.821 154.543 244.63L156.471 237.583C120.072 227.51 106.078 196.098 105.513 194.768Z" fill="#F777B2"/>
<path d="M129.613 135.799C143.574 121.173 160.759 111.533 160.992 111.4L159.23 108.209L157.469 105.018C156.737 105.416 139.086 115.289 124.327 130.779C115.718 139.788 110.998 151.621 110.998 164.12V177.649C110.998 189.782 115.452 201.317 123.496 210.092C133.169 220.63 144.87 227.843 158.266 231.533L160.194 224.486C148.128 221.161 137.59 214.646 128.881 205.139C122.067 197.693 118.277 187.921 118.277 177.649V164.12C118.311 153.516 122.333 143.477 129.613 135.799Z" fill="#F777B2"/>
<path d="M107.275 224.12C106.111 222.79 104.948 221.394 103.884 220.031L101.025 216.375L98.1667 220.031C97.0697 221.427 95.9395 222.79 94.7761 224.12C87.4631 232.463 78.9534 239.378 69.5462 244.63H83.1085C89.3246 240.109 95.1085 234.857 100.294 228.94C100.56 228.641 100.793 228.342 101.059 228.042C101.325 228.342 101.557 228.641 101.823 228.94C107.009 234.857 112.759 240.109 119.009 244.63H132.571C123.131 239.378 114.588 232.463 107.275 224.12Z" fill="#F777B2"/>
</svg>
