<svg width="36" height="36" viewBox="0 0 36 36" fill="none" xmlns="http://www.w3.org/2000/svg">
<path d="M10.5 9V16.5C10.5 16.8978 10.658 17.2794 10.9393 17.5607C11.2206 17.842 11.6022 18 12 18H16.5V30H13.5C13.1022 30 12.7206 30.158 12.4393 30.4393C12.158 30.7206 12 31.1022 12 31.5C12 31.8978 12.158 32.2794 12.4393 32.5607C12.7206 32.842 13.1022 33 13.5 33H22.5C22.8978 33 23.2794 32.842 23.5607 32.5607C23.842 32.2794 24 31.8978 24 31.5C24 31.1022 23.842 30.7206 23.5607 30.4393C23.2794 30.158 22.8978 30 22.5 30H19.5V18H27C27.2241 18.0008 27.4455 17.9513 27.648 17.8553C27.8504 17.7592 28.0288 17.619 28.17 17.445L31.17 13.695C31.383 13.429 31.4991 13.0983 31.4991 12.7575C31.4991 12.4167 31.383 12.086 31.17 11.82L28.17 8.07C28.0303 7.89322 27.8526 7.75018 27.65 7.6515C27.4475 7.55282 27.2253 7.50104 27 7.5H19.5V4.5C19.5 4.10218 19.342 3.72064 19.0607 3.43934C18.7794 3.15804 18.3978 3 18 3C17.6022 3 17.2206 3.15804 16.9393 3.43934C16.658 3.72064 16.5 4.10218 16.5 4.5V7.5H12C11.6022 7.5 11.2206 7.65804 10.9393 7.93934C10.658 8.22064 10.5 8.60218 10.5 9ZM13.5 10.5H26.28L28.08 12.75L26.28 15H13.5V10.5Z" fill="#F11D7C"/>
</svg>
