<svg width="32" height="32" viewBox="0 0 32 32" fill="none" xmlns="http://www.w3.org/2000/svg">
<g clip-path="url(#clip0_199_136)">
<mask id="mask0_199_136" style="mask-type:luminance" maskUnits="userSpaceOnUse" x="0" y="0" width="32" height="32">
<path d="M31.9368 0.0541992H0.0632324V31.9466H31.9368V0.0541992Z" fill="white"/>
</mask>
<g mask="url(#mask0_199_136)">
<path d="M15.525 0.0649414C20.247 0.0724101 24.3218 1.73969 27.3741 4.86294C30.2078 7.76345 31.9262 11.7206 31.899 16.0731C31.8446 24.7671 24.8066 31.9358 15.8968 31.8822C7.0859 31.829 0.0742094 24.6634 0.102748 15.9105C0.116359 11.7333 1.7571 7.64922 4.88317 4.61252C7.97454 1.61009 11.7017 0.126009 15.525 0.0649414Z" fill="#6B2975"/>
</g>
<path d="M19.2042 5.93892C19.3078 5.82996 19.4084 5.71705 19.5199 5.61469C19.8918 5.27288 20.3058 5.00005 20.7888 4.84277C21.4899 4.61432 22.1669 4.6912 22.8299 4.99962C23.1135 5.13142 23.334 5.33483 23.5394 5.55933C23.9605 6.01888 24.2722 6.54213 24.4369 7.14622C24.6213 7.82324 24.5875 8.4963 24.3785 9.16234C24.202 9.72381 23.9205 10.2317 23.5785 10.7075C23.1267 11.3349 22.5911 11.8845 22.0106 12.3923C21.1751 13.1234 20.2658 13.7516 19.3258 14.3382C19.2288 14.3988 19.1647 14.3992 19.0664 14.3377C18.2581 13.8338 17.4717 13.2991 16.735 12.6942C16.0839 12.1595 15.4771 11.5804 14.9608 10.9118C14.5801 10.418 14.2613 9.88944 14.0532 9.29809C13.8811 8.80955 13.8017 8.30738 13.8399 7.78985C13.8811 7.23277 14.0567 6.71742 14.3443 6.23986C14.5533 5.89235 14.8106 5.58393 15.1074 5.30715C15.2475 5.17623 15.4068 5.07826 15.5785 4.99698C16 4.79796 16.4417 4.69032 16.9093 4.71229C17.3769 4.73426 17.8076 4.8788 18.2098 5.11472C18.5549 5.31726 18.8582 5.56987 19.1269 5.86599C19.1458 5.88664 19.1647 5.90685 19.184 5.92706C19.1884 5.93145 19.195 5.93365 19.2042 5.93892Z" fill="#8CC63F"/>
<path d="M16.7095 25.5818C16.6608 25.6257 16.6138 25.6705 16.5646 25.7127C16.263 25.9702 15.9139 26.1288 15.5258 26.2021C15.0468 26.2926 14.5744 26.265 14.1165 26.0954C13.5589 25.8889 13.1593 25.5018 12.8818 24.9816C12.6887 24.6196 12.5758 24.2313 12.5144 23.8271C12.4358 23.3117 12.4344 22.7951 12.4994 22.2788C12.5684 21.7288 12.7198 21.2042 13.0188 20.7319C13.3841 20.1551 13.8925 19.7733 14.5661 19.634C15.1017 19.5233 15.6259 19.5514 16.1229 19.8063C16.2612 19.877 16.3894 19.964 16.5111 20.0606C16.5291 20.0751 16.5422 20.0997 16.5804 20.0971V19.9978C16.5804 19.033 16.5804 18.0682 16.5804 17.103C16.5804 16.9462 16.5971 16.9282 16.7556 16.8996C16.8904 16.875 17.0274 16.8754 17.1631 16.8715C17.4326 16.8645 17.7022 16.8658 17.9714 16.8873C18.0333 16.8921 18.0947 16.9005 18.1536 16.922C18.2251 16.9484 18.2453 16.9774 18.2475 17.0529C18.2484 17.0775 18.2475 17.1026 18.2475 17.1272C18.2475 19.5624 18.2475 21.9981 18.2475 24.4334C18.2475 24.4922 18.2497 24.5511 18.2603 24.6095C18.2831 24.7347 18.3375 24.791 18.4631 24.8209C18.5118 24.8327 18.561 24.8327 18.6106 24.8345C18.6958 24.8375 18.7296 24.8635 18.7432 24.9469C18.7537 25.0111 18.7608 25.0765 18.7612 25.1411C18.7617 25.3705 18.7709 25.6002 18.7472 25.8291C18.7441 25.8599 18.7371 25.8902 18.7309 25.9205C18.7186 25.9847 18.68 26.0224 18.6181 26.0435C18.471 26.094 18.3204 26.1296 18.1667 26.1494C17.9577 26.1766 17.7474 26.1916 17.5371 26.1586C17.1789 26.1033 16.8966 25.9376 16.7293 25.6042C16.7253 25.5967 16.7174 25.5906 16.7095 25.5818Z" fill="white"/>
<path d="M12.0389 9.60667C12.0389 10.6523 12.0389 11.6975 12.0389 12.7431C12.0389 12.8701 12.0279 12.8556 12.1548 12.856C12.3563 12.8564 12.5578 12.856 12.7594 12.856C12.7747 12.856 12.7905 12.856 12.8059 12.856C12.9618 12.8582 12.9978 12.8929 13.0188 13.0502C13.0373 13.189 13.0364 13.3287 13.0347 13.468C13.032 13.6881 13.0465 13.9087 13.0193 14.1279C13.0175 14.1402 13.0171 14.1525 13.0153 14.1648C12.9947 14.3102 12.9569 14.3427 12.809 14.3427C11.5441 14.3427 10.2792 14.3427 9.01424 14.3427C8.99272 14.3427 8.97077 14.3423 8.94926 14.3414C8.88998 14.3392 8.85135 14.3085 8.83159 14.2527C8.80832 14.1876 8.79954 14.12 8.79734 14.0519C8.78681 13.7479 8.78725 13.4443 8.79691 13.1403C8.79866 13.0788 8.80744 13.0168 8.82632 12.9575C8.8452 12.8982 8.88164 12.8622 8.94662 12.86C8.99316 12.8586 9.03926 12.8556 9.0858 12.8556C9.29348 12.8551 9.50115 12.8556 9.70882 12.8551C9.78126 12.8551 9.78126 12.8538 9.78258 12.7853C9.78302 12.7699 9.78258 12.7541 9.78258 12.7387C9.78258 10.651 9.78258 8.56281 9.78214 6.47508C9.78214 6.34591 9.7997 6.3648 9.66755 6.36393C9.44451 6.36261 9.22103 6.36393 8.99799 6.36349C8.87462 6.36305 8.83379 6.32702 8.81095 6.20445C8.79427 6.1157 8.7912 6.02564 8.7912 5.93601C8.79076 5.69394 8.7912 5.45186 8.79471 5.21023C8.79559 5.14257 8.80481 5.07403 8.81842 5.00725C8.83862 4.90928 8.88033 4.87853 8.97999 4.87457C9.00458 4.87369 9.0296 4.87413 9.05463 4.87413H12.7752C12.7905 4.87413 12.8063 4.87413 12.8217 4.87413C12.9565 4.87589 12.9973 4.9106 13.0153 5.04547C13.0285 5.14389 13.036 5.24274 13.0351 5.34203C13.0338 5.56521 13.0338 5.78883 13.0316 6.01202C13.0307 6.08319 13.0232 6.15436 13.0066 6.22378C12.9811 6.33098 12.9411 6.36217 12.8305 6.36217C12.6009 6.36305 12.3717 6.36261 12.1421 6.36261C12.1205 6.36261 12.0986 6.36305 12.0771 6.36305C12.0494 6.36261 12.0384 6.37711 12.0389 6.40347C12.0393 6.42851 12.0389 6.45311 12.0389 6.47815C12.0389 7.52202 12.0389 8.56457 12.0389 9.60667Z" fill="white"/>
<path d="M7.83184 20.3246C7.87838 20.2789 7.91746 20.2402 7.95741 20.2024C8.30163 19.8782 8.71126 19.6827 9.17534 19.6089C9.62581 19.5373 10.0728 19.5667 10.5048 19.7196C11.1511 19.9481 11.5445 20.4133 11.7302 21.064C11.8158 21.3641 11.8479 21.6725 11.8523 21.9831C11.8698 23.2888 11.8558 24.5949 11.8597 25.9006C11.8602 26.0285 11.8316 26.0658 11.7056 26.0918C11.6362 26.1063 11.5647 26.1142 11.4935 26.1172C11.1713 26.1322 10.8495 26.13 10.5272 26.1172C10.4438 26.1137 10.3604 26.1045 10.2796 26.0808C10.2199 26.0632 10.1843 26.0259 10.186 25.9595C10.1869 25.9318 10.1856 25.9037 10.1856 25.8756C10.1856 24.7184 10.1869 23.5612 10.1843 22.404C10.1839 22.1935 10.1724 21.9831 10.1373 21.7744C10.0758 21.4084 9.86422 21.1879 9.50507 21.1062C9.17359 21.031 8.84737 21.0556 8.52511 21.1606C8.1743 21.2749 7.99605 21.5165 7.97453 21.8833C7.96092 22.1158 7.95302 22.3477 7.95258 22.5806C7.9517 23.6758 7.95214 24.7707 7.95214 25.8659C7.95214 25.8875 7.95258 25.9094 7.95214 25.931C7.94951 26.0206 7.92668 26.054 7.8415 26.0799C7.73393 26.1128 7.62197 26.1168 7.51045 26.1208C7.21629 26.1304 6.92168 26.1291 6.62752 26.1168C6.55946 26.1142 6.49141 26.1063 6.42467 26.094C6.30437 26.0715 6.28154 26.0404 6.28154 25.9191C6.28154 24.8115 6.2811 23.704 6.28154 22.5964C6.28154 22.0881 6.271 21.5793 6.25344 21.0715C6.24027 20.6875 6.22622 20.3035 6.19285 19.9204C6.18319 19.8079 6.217 19.7592 6.32632 19.7324C6.43828 19.7051 6.55288 19.6981 6.66747 19.6976C6.94012 19.6972 7.21277 19.6831 7.48499 19.7113C7.50343 19.713 7.52231 19.7139 7.54031 19.717C7.68432 19.7398 7.73437 19.7829 7.76379 19.9257C7.79101 20.0544 7.80857 20.1836 7.83184 20.3246Z" fill="white"/>
<path d="M24.2419 19.5758C24.7754 19.5758 25.2886 19.6689 25.7733 19.9C25.9305 19.9751 26.0789 20.0643 26.2185 20.168C26.3099 20.2361 26.3257 20.284 26.2919 20.392C26.2655 20.4755 26.2247 20.5524 26.1803 20.6266C26.0776 20.7997 25.9718 20.9711 25.8655 21.1424C25.833 21.1951 25.7953 21.2444 25.7487 21.2865C25.6811 21.348 25.6254 21.3564 25.5468 21.3103C25.4427 21.2492 25.3391 21.1872 25.2302 21.1341C24.9387 20.9922 24.6305 20.9162 24.3069 20.9166C24.09 20.917 23.874 20.9368 23.6707 21.0269C23.5873 21.0638 23.5144 21.1143 23.4534 21.1824C23.2861 21.37 23.3067 21.6231 23.5017 21.7812C23.604 21.8643 23.7216 21.9192 23.8433 21.9671C24.0856 22.0624 24.3368 22.1301 24.5848 22.2069C24.8838 22.2996 25.1797 22.3994 25.459 22.543C25.6811 22.6573 25.8849 22.7965 26.0539 22.9824C26.2879 23.2389 26.4139 23.5447 26.4446 23.8878C26.4991 24.4998 26.3265 25.0407 25.9138 25.4985C25.6315 25.8113 25.2746 26.0024 24.8737 26.1179C24.5892 26.2001 24.2981 26.2374 24.0031 26.248C23.5162 26.2655 23.0385 26.2093 22.5735 26.0599C22.2231 25.9475 21.8952 25.7893 21.6058 25.5573C21.4948 25.4686 21.4789 25.4172 21.5207 25.2832C21.5264 25.2656 21.5321 25.2476 21.5395 25.2309C21.6585 24.9713 21.7964 24.7221 21.9558 24.4853C21.9676 24.4673 21.9821 24.4506 21.9962 24.4344C22.0963 24.3202 22.1533 24.3122 22.2824 24.3948C22.6407 24.6246 23.0249 24.7916 23.4463 24.8627C23.759 24.9155 24.0698 24.9089 24.3745 24.8105C24.4755 24.7779 24.5686 24.7296 24.6511 24.6615C24.8838 24.4691 24.8759 24.1681 24.6322 23.9889C24.4777 23.8751 24.2981 23.8145 24.1181 23.7565C23.8296 23.6638 23.5346 23.5904 23.2479 23.492C22.9335 23.3839 22.6297 23.2539 22.3628 23.0505C21.9755 22.7557 21.7692 22.3629 21.7191 21.8814C21.684 21.5457 21.7156 21.2184 21.8403 20.9043C22.0019 20.4975 22.2842 20.1926 22.6565 19.969C22.9994 19.7633 23.3735 19.6522 23.7682 19.6021C23.9262 19.5823 24.0839 19.5749 24.2419 19.5758Z" fill="white"/>
<path d="M19.4084 22.9073V19.9954C19.4084 19.9769 19.4084 19.9581 19.4084 19.9396C19.4088 19.7735 19.4273 19.7463 19.5923 19.7221C19.7021 19.7063 19.8145 19.6993 19.9256 19.6988C20.2197 19.6971 20.5144 19.6852 20.8081 19.7129C20.8669 19.7182 20.9244 19.7278 20.9811 19.745C21.0452 19.7643 21.0799 19.806 21.0803 19.8741C21.0803 19.8987 21.0807 19.9238 21.0807 19.9484C21.0807 21.9237 21.0807 23.8989 21.0807 25.8742C21.0807 26.0446 21.0518 26.0758 20.8827 26.1017C20.769 26.1193 20.6544 26.1224 20.5398 26.1237C20.2272 26.1277 19.9142 26.1382 19.6024 26.1022C19.5901 26.1009 19.5778 26.1004 19.5656 26.0982C19.4391 26.0754 19.4093 26.0416 19.4088 25.912C19.4079 25.4467 19.4084 24.9819 19.4084 24.5166V22.9073Z" fill="white"/>
<path d="M20.2184 19.0107C19.627 19.0103 19.1436 18.5279 19.1475 17.9427C19.1515 17.3465 19.6323 16.8654 20.2267 16.8711C20.8774 16.8773 21.3073 17.4164 21.2967 17.9607C21.2862 18.5332 20.8067 19.023 20.2184 19.0107Z" fill="#8CC63F"/>
<path d="M16.5804 22.8508C16.5804 23.1794 16.5822 23.508 16.5795 23.8366C16.5787 23.9539 16.5743 24.0717 16.5541 24.1881C16.5207 24.3841 16.4211 24.5312 16.2481 24.6301C16.076 24.7285 15.8902 24.7843 15.6949 24.808C15.4521 24.8375 15.2128 24.8194 14.981 24.7351C14.7188 24.6402 14.5406 24.4552 14.4146 24.2127C14.3048 24.0014 14.2425 23.7751 14.21 23.541C14.1476 23.0924 14.1617 22.6452 14.2451 22.2001C14.2789 22.02 14.332 21.8456 14.4128 21.6804C14.6328 21.2309 14.9954 21.0126 15.4925 21.0157C15.9324 21.0187 16.2731 21.2226 16.5536 21.5464C16.5817 21.5789 16.58 21.6136 16.58 21.6505C16.58 21.9326 16.58 22.2146 16.58 22.4967V22.8508H16.5804Z" fill="#6B2976"/>
</g>
<defs>
<clipPath id="clip0_199_136">
<rect width="32" height="32" fill="white"/>
</clipPath>
</defs>
</svg>
