<svg width="36" height="36" viewBox="0 0 36 36" fill="none" xmlns="http://www.w3.org/2000/svg">
<path d="M18 7.5C15.9233 7.5 13.8932 8.11581 12.1665 9.26957C10.4398 10.4233 9.09399 12.0632 8.29927 13.9818C7.50455 15.9004 7.29662 18.0116 7.70176 20.0484C8.10691 22.0853 9.10693 23.9562 10.5754 25.4246C12.0438 26.8931 13.9148 27.8931 15.9516 28.2982C17.9884 28.7034 20.0996 28.4955 22.0182 27.7007C23.9368 26.906 25.5767 25.5602 26.7304 23.8335C27.8842 22.1068 28.5 20.0767 28.5 18C28.5 15.2152 27.3938 12.5445 25.4246 10.5754C23.4555 8.60625 20.7848 7.5 18 7.5V7.5ZM18 25.5C16.5166 25.5 15.0666 25.0601 13.8332 24.236C12.5999 23.4119 11.6386 22.2406 11.0709 20.8701C10.5033 19.4997 10.3547 17.9917 10.6441 16.5368C10.9335 15.082 11.6478 13.7456 12.6967 12.6967C13.7456 11.6478 15.082 10.9335 16.5368 10.6441C17.9917 10.3547 19.4997 10.5032 20.8701 11.0709C22.2406 11.6386 23.4119 12.5999 24.236 13.8332C25.0601 15.0666 25.5 16.5166 25.5 18C25.5 19.9891 24.7098 21.8968 23.3033 23.3033C21.8968 24.7098 19.9891 25.5 18 25.5V25.5ZM18 13.5C17.11 13.5 16.24 13.7639 15.4999 14.2584C14.7599 14.7529 14.1831 15.4557 13.8425 16.2779C13.502 17.1002 13.4128 18.005 13.5865 18.8779C13.7601 19.7508 14.1887 20.5526 14.818 21.182C15.4474 21.8113 16.2492 22.2399 17.1221 22.4135C17.995 22.5872 18.8998 22.4981 19.7221 22.1575C20.5444 21.8169 21.2472 21.2401 21.7416 20.5001C22.2361 19.76 22.5 18.89 22.5 18C22.5 16.8065 22.0259 15.6619 21.182 14.818C20.3381 13.9741 19.1935 13.5 18 13.5ZM18 19.5C17.7033 19.5 17.4133 19.412 17.1667 19.2472C16.92 19.0824 16.7277 18.8481 16.6142 18.574C16.5007 18.2999 16.471 17.9983 16.5288 17.7074C16.5867 17.4164 16.7296 17.1491 16.9393 16.9393C17.1491 16.7296 17.4164 16.5867 17.7074 16.5288C17.9983 16.4709 18.2999 16.5007 18.574 16.6142C18.8481 16.7277 19.0824 16.92 19.2472 17.1666C19.412 17.4133 19.5 17.7033 19.5 18C19.5 18.3978 19.342 18.7794 19.0607 19.0607C18.7794 19.342 18.3978 19.5 18 19.5ZM18 1.5C14.7366 1.5 11.5465 2.46771 8.8331 4.28075C6.11969 6.09379 4.00484 8.67074 2.756 11.6857C1.50715 14.7007 1.18039 18.0183 1.81705 21.219C2.45371 24.4197 4.02518 27.3597 6.33275 29.6673C8.64031 31.9748 11.5803 33.5463 14.781 34.183C17.9817 34.8196 21.2993 34.4929 24.3143 33.244C27.3293 31.9952 29.9062 29.8803 31.7193 27.1669C33.5323 24.4535 34.5 21.2634 34.5 18C34.5 13.6239 32.7616 9.42709 29.6673 6.33274C26.5729 3.23839 22.3761 1.5 18 1.5V1.5ZM18 31.5C15.33 31.5 12.7199 30.7082 10.4998 29.2248C8.27975 27.7414 6.54942 25.633 5.52763 23.1662C4.50585 20.6994 4.23851 17.985 4.75941 15.3663C5.28031 12.7475 6.56606 10.3421 8.45407 8.45406C10.3421 6.56605 12.7475 5.2803 15.3663 4.7594C17.985 4.2385 20.6994 4.50584 23.1662 5.52763C25.633 6.54941 27.7414 8.27974 29.2248 10.4998C30.7082 12.7199 31.5 15.33 31.5 18C31.5 21.5804 30.0777 25.0142 27.5459 27.5459C25.0142 30.0777 21.5804 31.5 18 31.5V31.5Z" fill="#F11D7C"/>
</svg>
